<?xml version="1.0" encoding="UTF-8"?>
<svg id="Layer_1" data-name="Layer 1" xmlns="http://www.w3.org/2000/svg" viewBox="0 0 32.19 31.05">
  <defs>
    <style>
      .cls-1 {
        fill: #7681bf;
      }

      .cls-1, .cls-2, .cls-3 {
        stroke-width: 0px;
      }

      .cls-2 {
        fill: #c7e1f2;
      }

      .cls-3 {
        fill: #fff;
      }
    </style>
  </defs>
  <path class="cls-1" d="M26.59,3.67c3.01,2.45,5.13,6.08,5.5,10C34.13,35.29,2.11,36.87.09,17.67c-.11-1.05-.14-3.54,0-4.5C1.8,1.45,16.84-4.26,26.59,3.67Z"/>
  <path class="cls-2" d="M3.59,13.17c1.6-2.49,3.16-5.81,5.75-7.5,8.3-5.4,2.79,1.43,6.5,3.5,3.5,1.95,8.79-1.47,3.25-6.5,11.41,2.33,14.31,18.1,4.25,24-9.13,5.36-21.57-1.32-19.75-13.5Z"/>
  <path class="cls-3" d="M19.09,2.67c5.54,5.03.25,8.45-3.25,6.5-3.71-2.07,1.8-8.9-6.5-3.5-2.59,1.69-4.15,5.01-5.75,7.5C4.78,5.23,11.31,1.08,19.09,2.67Z"/>
</svg>