<?xml version="1.0" encoding="UTF-8"?>
<svg id="Layer_1" data-name="Layer 1" xmlns="http://www.w3.org/2000/svg" viewBox="0 0 684.89 653.13">
  <defs>
    <style>
      .cls-1 {
        fill: #4d2062;
      }

      .cls-1, .cls-2, .cls-3, .cls-4, .cls-5, .cls-6, .cls-7, .cls-8, .cls-9, .cls-10, .cls-11, .cls-12, .cls-13, .cls-14, .cls-15 {
        stroke-width: 0px;
      }

      .cls-2 {
        fill: #4a2415;
      }

      .cls-3 {
        fill: #7d2f92;
      }

      .cls-4 {
        fill: #7c4e9f;
      }

      .cls-5 {
        fill: #7a4a9d;
      }

      .cls-6 {
        fill: #63bd5b;
      }

      .cls-7 {
        fill: #5c2976;
      }

      .cls-8 {
        fill: #6e2b8c;
      }

      .cls-9 {
        fill: #71429a;
      }

      .cls-10 {
        fill: #3e1448;
      }

      .cls-11 {
        fill: #100e0f;
      }

      .cls-12 {
        fill: #405099;
      }

      .cls-13 {
        fill: #200f26;
      }

      .cls-14 {
        fill: #191117;
      }

      .cls-15 {
        fill: #a3c371;
      }
    </style>
  </defs>
  <g>
    <path class="cls-5" d="M671.01,371.29c13.59-42.53,12.53-107.69-4.27-149.34,4.26.82,11.64,29.6,12.8,35.35,3.4,16.87,6.18,41.87,5.12,58.78-.45,7.09-8.76,49.43-11.09,54.02-.17.34-1.57.6-2.56,1.19Z"/>
    <path class="cls-12" d="M142.94,272.8c-1.1,17.23-1.72,36.47,0,53.62,3.02,30.06,22.62,70.24,10.24,98.9,8.41-55.13-18.76-70.38-12.8-144.97.15-1.92.74-8.2,2.56-7.55Z"/>
    <path class="cls-12" d="M96.87,445.17c-29.67,5.23-52.38,45.25-22.18,69.9-34.15-19.36-13.02-66.65,22.18-69.9Z"/>
    <path class="cls-9" d="M578.87,28.14c1.46-9.09,1.69-18.53-2.56-27.01.15-4.98,5.74,8.04,5.97,9.93.41,3.26-.5,17.4-3.41,17.08Z"/>
  </g>
  <g>
    <path class="cls-11" d="M513.18,102.01c8.04,17.41,30.9,37.54,40.1,54.02.53.95,1.17,3.68,1.71,4.77l-4.27-.79c-1.13-1.72-2.93-3.22-4.27-4.77-16.34-24.02-32.1-32.67-41.8-61.17,5.8-4.34,2.03,5.18,8.53,7.94Z"/>
    <g>
      <path class="cls-14" d="M513.18,102.01c-6.5-2.76-2.73-12.28-8.53-7.94-1.56-4.58-1.92-10.85-3.41-14.3-.13-.31-.18-1.8-1.28-3.18-44.53,1.53-167.92-4.17-200.9,0-1.9.24-6.57-.54-7.68.4-2.53,27.23-12.04,34.9-26.45,54.41-1.47-2.43,8.27-11.17,11.94-17.08,7.26-11.67,11.27-23.94,12.8-37.33,2.49-4.89,11.02-.42,10.24-5.16,1.12.02,2.3.08,3.41,0,.07.66-.33,2.14.43,2.38,5.12,1.64,58.08-1.02,68.25,0,15.14-2.84,33.97-58.4,15.36-68.31-14.17,1.14-28.4,2.28-42.65,2.38-6.57.53-9.31,2.34-9.81,2.38-15.73,1.44-31.32,2.05-46.92,4.77.02-3.5,6.26,1.07,5.97-5.56,37.43-5.81,100.52-8.46,138.63-7.15,12.66.43,92,5.33,95.12,14.7,3.98,11.93-12.06,16.61-14.5,19.86-16.7,22.19,35.71,24.48-5.97,40.51.13,9.06,2.2,16.06,5.97,24.23Z"/>
      <path class="cls-11" d="M287.97,15.43c-3.01.52-14.2.93-15.36,3.57-4.2,9.64,16.22,8.55,17.06,10.33-1.49,18.28,5.83,24.9-10.24,36.54.52,3.21,17.35,5.89,20.47,5.96.79,4.74-7.75.27-10.24,5.16-1.52,13.4-5.54,25.67-12.8,37.33-3.68,5.91-13.41,14.65-11.94,17.08-6.92,9.37-15.42,17.77-21.33,27.8-8.73,14.83-13.28,30.83-14.5,47.66l-2.56-7.15c4.98-62.48,57.21-75.16,58.01-121.93-.94-1.85-36.47-5.79-3.41-25.42,2.01-25.69-3.9-12.79-11.94-22.24-14.48-17,13.27-18.48,24.74-20.26.29,6.63-5.95,2.06-5.97,5.56Z"/>
      <path class="cls-10" d="M303.32,71.82c22.04-1.51,43.81-32.23,17.06-48.85q7.25-6.16,14.5-12.31c.5-.05,3.24-1.85,9.81-2.38,14.26-.1,28.48-1.24,42.65-2.38,18.62,9.91-.22,65.48-15.36,68.31-10.17-1.02-63.13,1.64-68.25,0-.75-.24-.35-1.72-.43-2.38Z"/>
      <path class="cls-8" d="M334.89,10.66q-7.25,6.16-14.5,12.31c26.75,16.63,4.98,47.34-17.06,48.85-1.11.08-2.29.02-3.41,0-3.13-.07-19.95-2.75-20.47-5.96,16.06-11.64,8.75-18.26,10.24-36.54-.84-1.78-21.26-.68-17.06-10.33,1.15-2.65,12.34-3.05,15.36-3.57,15.6-2.72,31.19-3.33,46.92-4.77Z"/>
    </g>
    <g>
      <path class="cls-2" d="M229.1,206.86c-3.5,48.01,1.96,156.5.85,212.09-1.16.66-2.19,1.09-3.41,1.59-.16-44.55-2.31-191.85,0-220.83l2.56,7.15Z"/>
      <path class="cls-6" d="M501.24,79.77c-1.73,2.6-3.56,1.08-4.27,1.99-1.49,1.9,6.32,22.46,11.94,31.77,11.75,19.44,28.78,31.58,37.54,41.7,1.34,1.55,3.13,3.05,4.27,4.77,4.96,7.51,8,21.81,10.24,30.58v234.33c-4.66-1.79-9.81-2.78-14.5-4.37-16.6-12.83-70.13-67.2-72.51-83.8-1.59-11.05,3.85-16.41,3.41-21.84,1.94-2.17,3.83-3.64,5.97-5.56,4.66,3.01,22.27-11.3,24.74-14.7,3.75-5.15,6.5-14.51,5.97-20.65-.87-10.22-17.15-28.56-17.92-20.26-.78-.94-3.93-1.81-4.27-2.78,5.55-41.12-40.53-73.48-80.62-76.65-49.65-3.93-104.24,24.42-95.97,76.65-45.02,35.12,3.05,52.27,11.94,64.74-3.39,4.24,1.97,10.99.85,19.46-1.68,12.75-34.34,46.97-45.64,56-4.96,3.96-12.42,5.7-14.08,11.92-3.44.98-34.61,13.73-38.39,15.89,1.11-55.59-4.35-164.08-.85-212.09,1.23-16.83,5.77-32.83,14.5-47.66,25.37-23,45.53-50.71,55.45-82.61,32.98-4.17,156.37,1.53,200.9,0,1.1,1.37,1.15,2.87,1.28,3.18Z"/>
      <path class="cls-6" d="M271.76,402.27c-1.13.18-2.32.49-3.41.79,1.65-6.21,9.11-7.95,14.08-11.92,11.31-9.03,43.96-43.26,45.64-56,1.11-8.47-4.25-15.22-.85-19.46,4.47,6.27,7.28,14.38,5.97,21.84-1.8,10.28-46.32,60.79-61.42,64.74Z"/>
      <path class="cls-6" d="M299.06,76.59c-9.92,31.9-30.08,59.61-55.45,82.61,5.91-10.03,14.41-18.43,21.33-27.8,14.4-19.51,23.92-27.18,26.45-54.41,1.1-.94,5.78-.16,7.68-.4Z"/>
      <path class="cls-15" d="M504.65,94.07c9.71,28.49,25.46,37.15,41.8,61.17-8.75-10.13-25.79-22.27-37.54-41.7-5.63-9.31-13.43-29.87-11.94-31.77.71-.91,2.54.62,4.27-1.99,1.49,3.45,1.85,9.72,3.41,14.3Z"/>
      <path class="cls-6" d="M546.46,420.54c-3.81-1.29-4.36.02-10.66-3.97-18.55-15.96-71.19-64.56-67.82-87.78.89-6.11,5.57-9.65,9.38-13.9.44,5.44-5,10.8-3.41,21.84,2.38,16.6,55.91,70.98,72.51,83.8Z"/>
      <path class="cls-6" d="M483.33,309.34c19.95-17.89,39.19-23.98,12.8-55.6.76-8.3,17.04,10.03,17.92,20.26.52,6.14-2.22,15.5-5.97,20.65-2.47,3.4-20.08,17.71-24.74,14.7Z"/>
    </g>
    <g>
      <path class="cls-14" d="M462.85,528.58c1.23-.81,2.36.32,3.41.79,52.36,23.41,78.25-32.27,52.04-63.95-4.74-5.72-10.98-8.59-13.65-10.72-11.6-9.29-22.58-16.58-35.83-23.83l.85-3.97c19.47,11.82,37.85,24.59,57.16,36.54,3.98,2.46,4.88,2.24,5.12,2.38,7.37,4.48,26.12,14.11,27.3,15.09,4.67,3.88,3.26,6.02,1.28,11.92l-1.28-1.59c-.03-1.6.4-4.33-.43-5.56-.34-.5-9.94-4.52-11.52-5.16,1.84,19.58-6,45.07-22.18,58.38-19.08,15.69-49.51,15.85-72.94,10.33-45.19,26.1-55.8,18.9-97.25-.79-15.19-2.66-55.59,5.99-90.43-12.71-8.53-4.58-29.5-24.12-22.61-11.92h-.85c-1.24-1.89-3.13-3.55-4.27-5.56-2.07-8.89,3.16-.6,5.97-5.56,22.16-1.28,28.82-23.1,26.02-40.51-4.82,4.08-12.34,8.56-16.64,12.71l-1.71-1.59c11.09-11.56,10.91-10.67,24.74-18.27,44.14-24.25,59.57-19.12,73.37-81.82.38-.37,4.37-8.39,4.27,1.99-.02,1.73-7.87,26.3-9.38,30.19-14.36,36.93-53.68,79.69-31.56,112,20.1,29.38,64.8.92,58.86-28.6-4.04-20.07-38.44-13.8-45.21,19.46h-.85c.45-21.19,16.62-29.65,29.86-44.48,8.17-9.16,17.91-18.07,24.74-28.2,6.78-10.04,20.96-36.2,15.36-46.47,3.1-15.5-.37-36.97,5.97-31.38,3.97,3.5-3.92,57.28,15.36,100.09,11.34,25.19,45.56,57,21.75,71.09-12.6,7.46-38.16.92-37.11,8.34.67,4.75,47.15,16.36,62.28-18.67Z"/>
      <path class="cls-13" d="M276.02,404.66q-23.67,9.93-47.35,19.86l-1.28,1.99c1.09,4.15,1.69,8.85,1.71,13.11.04,10.32-.38,20.67.43,30.98,3.02-10.62,7.43-21.08,14.08-30.19,5.68-7.78,24.99-26.12,33.27-34.16,1.46,1.89,2.31,1.43,4.27,2.38-14.02,15.18-38.5,35.56-46.07,53.62-4.24,10.11-11.43,36.63-.85,43.69,3.46-9.5,9.29-15.42,16.21-22.64l1.71,1.59c-8.53,8.24-18.66,24.91-15.78,27.8,4.05.89,5.09.08,6.4,0-2.81,4.96-8.04-3.32-5.97,5.56-.61-1.08-.83-.74-.85-.79-15.74-28.83-9.27-65.04-9.38-96.91,1.22-.5,2.25-.93,3.41-1.59,3.78-2.16,34.95-14.91,38.39-15.89,1.09-.31,2.28-.61,3.41-.79.19-.03.76,1.78,3.84-.79.96.66.1,2.75.43,3.18Z"/>
      <path class="cls-3" d="M454.32,195.74c5.97,16.2,6.65,33.1,6.82,50.04-23.47,2.69-30.74,23.78-28.15,42.89,1.74,12.82,6.71,17.86,9.38,25.42,3.18,8.99,14.04,35.14,11.09,43.29-.33.91-2.49,1.44-3.41,1.99-.28.17-3.02-2.71-3.41,1.99-.35,4.13,8.24,67.23,6.82,82.61,4.03,31.59,21.08,57.52,9.38,84.6-15.13,35.03-61.6,23.42-62.28,18.67-1.05-7.42,24.51-.88,37.11-8.34,23.81-14.09-10.41-45.9-21.75-71.09-19.27-42.81-11.39-96.59-15.36-100.09-6.35-5.59-2.87,15.88-5.97,31.38-4.21,21.02-23.67,47.52-38.39,63.95-10.7,11.94-31.42,25.02-1.71,10.72-13.24,14.84-29.41,23.3-29.86,44.48-.49,22.85,38.22,5.33,33.27-17.08-2.1-9.49-16.64-2.79-21.75,1.19-9.97,7.77.23,10.61-10.66,15.89,6.77-33.26,41.18-39.53,45.21-19.46,5.94,29.51-38.76,57.97-58.86,28.6-22.11-32.31,17.21-75.07,31.56-112,1.51-3.89,9.37-28.46,9.38-30.19.1-10.37-3.89-2.36-4.27-1.99-6.34,6.23-10.35,13.8-16.21,20.26-22.39,24.71-53.51,41.31-78.49,63.55,6.21-1.78,23.16-12.8,21.33-1.99-13.83,7.6-13.65,6.71-24.74,18.27-6.92,7.22-12.75,13.14-16.21,22.64-10.58-7.06-3.38-33.58.85-43.69,7.56-18.05,32.05-38.44,46.07-53.62,16.74-18.13,59.46-58.71,59.72-80.63.54-1.05,4.6-1.71,7.68-3.57,22.63-13.76,38.55-41.6,20.47-65.14-10.99-14.31-30.71-16.58-47.77-11.52-3.55-66.35,81.26-85.68,133.08-52.03Z"/>
      <path class="cls-14" d="M450.06,359.38c6.79,30.55,16,50.16,41.8,70.7-3.07-2.55-7.86-5.25-11.52-7.15-26.76-22.35-22.66-39.81-21.75-1.99.56,1.5,9.07,4.73,11.09,5.96l-.85,3.97c-3.29-1.8-6.41-3.93-9.81-5.56-.53.4-.77,11.49-.43,12.71,2.05,7.18,43,28.11,50.33,39.32,15.09,23.07-5.31,55.16-30.28,45.68-6.49-2.46-9.88-14.76-12.37,6.35-1.05-.47-2.18-1.61-3.41-.79,11.69-27.07-5.35-53-9.38-84.6,1.41-15.38-7.17-78.48-6.82-82.61.4-4.7,3.13-1.82,3.41-1.99Z"/>
      <path class="cls-1" d="M463.7,322.84c-.22,2.67-6.34,9.61-1.71,22.64,3.14,8.82,29.4,39.31,37.54,47.26,9.16,30.01,29.23,45.66,49.48,68.71l-1.28,1.99q-7.89,1.19-15.78,2.38c-.24-.15-1.14.08-5.12-2.38-8.96-13.47-22.51-23.02-34.98-33.36-25.8-20.53-35.01-40.15-41.8-70.7.92-.55,3.08-1.08,3.41-1.99,2.95-8.15-7.91-34.3-11.09-43.29,8.09,3.83,10.94,8.11,21.33,8.74Z"/>
      <path class="cls-1" d="M275.17,465.03c1.83-10.81-15.11.21-21.33,1.99,24.98-22.23,56.1-38.84,78.49-63.55,5.85-6.46,9.86-14.03,16.21-20.26-13.8,62.7-29.23,57.57-73.37,81.82Z"/>
      <path class="cls-3" d="M559.25,480.92c-1.18-.98-19.93-10.61-27.3-15.09q7.89-1.19,15.78-2.38l1.28-1.99c-20.25-23.05-40.31-38.71-49.48-68.71,17.38,16.98,42.51,34.36,61.42,50.44v38.13l-1.71-.4Z"/>
      <path class="cls-14" d="M324.65,518.25h.85c10.89-5.27.69-8.12,10.66-15.89,5.11-3.98,19.66-10.68,21.75-1.19,4.95,22.41-33.76,39.93-33.27,17.08Z"/>
      <path class="cls-10" d="M491.86,430.08c12.47,10.35,26.01,19.9,34.98,33.36-19.3-11.95-37.69-24.72-57.16-36.54-2.02-1.23-10.53-4.46-11.09-5.96-.9-37.82-5-20.36,21.75,1.99,3.65,1.9,8.45,4.6,11.52,7.15Z"/>
      <path class="cls-6" d="M242.75,512.69c-1.31.08-2.35.89-6.4,0-2.88-2.89,7.25-19.56,15.78-27.8,4.29-4.15,11.82-8.63,16.64-12.71,2.8,17.42-3.86,39.24-26.02,40.51Z"/>
      <g>
        <path class="cls-6" d="M525.13,538.9c5.08,6.53.44,4.62,0,9.53-31.1,24.89-68.04,31.17-107.92,32.57-41.44,1.46-96.6-.82-133.08-20.65-10.84-5.89-36.62-26.62-42.23-36.54-6.89-12.2,14.08,7.34,22.61,11.92,34.84,18.7,75.24,10.05,90.43,12.71,41.46,19.69,52.07,26.9,97.25.79,23.43,5.52,53.86,5.37,72.94-10.33Z"/>
        <path class="cls-15" d="M559.25,491.24c.14,7.08-7.16,26.03-11.09,32.57-4.5,7.49-15.91,18.92-23.03,24.62.44-4.91,5.08-3,0-9.53,16.18-13.31,24.02-38.8,22.18-58.38,1.57.64,11.18,4.66,11.52,5.16.83,1.23.39,3.96.43,5.56Z"/>
      </g>
      <path class="cls-1" d="M354.51,473.77c-29.71,14.3-8.99,1.22,1.71-10.72,14.72-16.43,34.18-42.93,38.39-63.95,5.61,10.27-8.58,36.43-15.36,46.47-6.83,10.13-16.57,19.04-24.74,28.2Z"/>
      <g>
        <path class="cls-3" d="M504.65,454.7c2.67,2.13,8.91,5,13.65,10.72,26.21,31.67.32,87.35-52.04,63.95,2.49-21.12,5.88-8.82,12.37-6.35,24.97,9.49,45.38-22.6,30.28-45.68-7.33-11.21-48.28-32.14-50.33-39.32q23.03,8.34,46.07,16.68Z"/>
        <path class="cls-1" d="M468.82,430.87c13.25,7.25,24.23,14.55,35.83,23.83q-23.03-8.34-46.07-16.68c-.35-1.22-.1-12.3.43-12.71,3.4,1.63,6.52,3.76,9.81,5.56Z"/>
      </g>
      <g>
        <path class="cls-1" d="M276.88,406.25c-8.28,8.04-27.59,26.37-33.27,34.16-5.61,2.2-9.21-.46-14.5-.79-.02-4.26-.62-8.95-1.71-13.11l1.28-1.99q23.67-9.93,47.35-19.86c1.58,2.05.76,1.46.85,1.59Z"/>
        <path class="cls-4" d="M243.61,440.4c-6.64,9.1-11.05,19.56-14.08,30.19-.81-10.31-.39-20.66-.43-30.98,5.29.33,8.9,2.99,14.5.79Z"/>
      </g>
      <path class="cls-1" d="M461.15,245.79c-.17-16.95-.86-33.85-6.82-50.04,18.89,12.27,34.74,30.46,30.28,53.22-6.75-3.29-15.96-4.04-23.46-3.18Z"/>
      <g>
        <path class="cls-14" d="M554.99,160.79c5.29,10.81,7.56,18.75,9.38,30.58v289.94c-2.66,21.65-8.98,43.94-25.59,59.97.72-.85,13.77-19.75,9.38-17.48,3.93-6.54,11.23-25.49,11.09-32.57l1.28,1.59c1.98-5.9,3.39-8.03-1.28-11.92l1.71.4v-38.13c-18.91-16.08-44.04-33.46-61.42-50.44-8.14-7.95-34.4-38.44-37.54-47.26-4.64-13.03,1.48-19.97,1.71-22.64.12-1.45-1.33-2.25-.85-3.97,1.02,0,2.44.16,2.99,0,1.91-.55,26.07-25.7,26.87-27.41,8.38-17.86-.41-43.46-27.3-41.7-11.29.74-20.48,5.61-24.74,15.89-8.99,6.03.24,19.77-7.68,23.04-2.59-19.11,4.69-40.21,28.15-42.89,7.5-.86,16.71-.11,23.46,3.18,4.45-22.76-11.39-40.96-30.28-53.22-51.83-33.65-136.63-14.32-133.08,52.03,17.06-5.06,36.78-2.79,47.77,11.52q-2.99.4-5.97.79c-4.54-4.66-8.6-6.19-14.5-7.94-30.51-9.08-54.85,19.35-39.24,40.11,1.25,1.66,7.48,7.8,9.38,5.96l.85,2.78c12.94,6.4,15.66,18.47,17.92,21.45,1.58,2.08,2.14.04,2.56.4,1.4,1.18-2.81,4.9,8.53,1.59-3.08,1.87-7.14,2.52-7.68,3.57-.26,21.92-42.98,62.5-59.72,80.63-1.96-.96-2.81-.5-4.27-2.38-.1-.12.73.46-.85-1.59-.33-.43.54-2.52-.43-3.18-3.07,2.57-3.65.76-3.84.79,15.11-3.95,59.62-54.46,61.42-64.74,1.31-7.46-1.5-15.58-5.97-21.84-8.9-12.47-56.97-29.62-11.94-64.74-8.27-52.23,46.33-80.59,95.97-76.65,40.09,3.18,86.17,35.53,80.62,76.65.33.97,3.48,1.84,4.27,2.78,26.4,31.63,7.15,37.72-12.8,55.6-2.14,1.92-4.03,3.39-5.97,5.56-3.81,4.25-8.5,7.79-9.38,13.9-3.37,23.21,49.27,71.82,67.82,87.78,6.3,3.99,6.86,2.68,10.66,3.97,4.7,1.59,9.84,2.58,14.5,4.37v-234.33c-2.24-8.77-5.28-23.07-10.24-30.58l4.27.79Z"/>
        <path class="cls-10" d="M548.59,424.52c3.09-1.01,11.71,3.1,12.37,5.16,2.93,9.12-6.62,2.5-12.37-5.16Z"/>
      </g>
      <g>
        <path class="cls-1" d="M363.04,260.09c19.78,20.31,3.9,56.31-23.03,62.75-.42-.36-.98,1.69-2.56-.4-2.26-2.97-4.97-15.05-17.92-21.45l-.85-2.78c-.55-3.05.43-5.82.85-8.74,28.51,47.34,58.45-13.06,29.01-21.45,1.06-5.36,2.96-10.73,0-15.89,5.9,1.76,9.96,3.28,14.5,7.94Z"/>
        <path class="cls-3" d="M348.54,252.14c2.96,5.16,1.06,10.52,0,15.89-16.52-4.7-27.02,7.68-29.01,21.45-.42,2.92-1.41,5.68-.85,8.74-1.9,1.84-8.13-4.29-9.38-5.96-15.61-20.77,8.73-49.19,39.24-40.11Z"/>
        <path class="cls-13" d="M369.01,259.29c18.08,23.54,2.16,51.38-20.47,65.14-11.35,3.31-7.13-.41-8.53-1.59,26.94-6.45,42.81-42.44,23.03-62.75q2.99-.4,5.97-.79Z"/>
        <g>
          <path class="cls-13" d="M348.54,268.03c29.45,8.38-.49,68.79-29.01,21.45,1.98-13.77,12.49-26.15,29.01-21.45Z"/>
          <g>
            <path class="cls-3" d="M339.58,270.41c21.74-2.53,23.2,28.08,5.12,30.19-21.32,2.48-22.94-28.11-5.12-30.19Z"/>
            <path class="cls-13" d="M344.27,295.04c5.04-4.5-10.26-1.84-7.68-12.31,1.88-7.62,14.69-1.99,14.5-5.16,6.71,8.68-1.08,16.61-6.82,17.48Z"/>
            <path class="cls-7" d="M351.1,277.56c.19,3.17-12.63-2.46-14.5,5.16-2.58,10.47,12.72,7.82,7.68,12.31-25.84,3.87-7.8-36.38,6.82-17.48Z"/>
          </g>
        </g>
      </g>
      <g>
        <path class="cls-1" d="M462.85,318.87c-13.56-.02-29.14-22.95-23.89-34.95,3.37,14.13,14.33,12.27,15.36,12.71,7.46,3.2,10.8,8.28,20.9,3.97,14.23-6.08,11.63-32.05-4.69-34.16q-2.56-8.34-5.12-16.68c26.89-1.76,35.68,23.85,27.3,41.7-.8,1.7-24.97,26.85-26.87,27.41-.55.16-1.97,0-2.99,0Z"/>
        <path class="cls-3" d="M465.41,249.76q2.56,8.34,5.12,16.68c-18.01-2.32-26.41,17.96-16.21,30.19-1.02-.44-11.99,1.42-15.36-12.71-1.7-7.13-1.05-11.62,1.71-18.27,4.26-10.27,13.45-15.15,24.74-15.89Z"/>
        <path class="cls-13" d="M440.67,265.65c-2.76,6.65-3.41,11.14-1.71,18.27-5.25,12,10.33,34.93,23.89,34.95-.47,1.72.97,2.52.85,3.97-10.39-.63-13.23-4.91-21.33-8.74-2.68-7.56-7.65-12.59-9.38-25.42,7.91-3.27-1.31-17.01,7.68-23.04Z"/>
        <g>
          <path class="cls-13" d="M470.53,266.44c16.32,2.1,18.93,28.08,4.69,34.16-10.1,4.31-13.44-.78-20.9-3.97-10.2-12.23-1.8-32.51,16.21-30.19Z"/>
          <g>
            <path class="cls-7" d="M461.15,295.83v-4.77c12.6,8.75,25.14-8.53,13.65-16.68v-3.18c16.02,6.53,5.86,35.34-13.65,24.62Z"/>
            <path class="cls-3" d="M474.79,271.21v3.18c-.18-.12-.63.12-.85,0-11.32-6.09-20.36,6.05-14.5,15.09.65,1.01.79.95,1.71,1.59v4.77c-14.7-8.07-5.13-32.29,13.65-24.62Z"/>
            <path class="cls-13" d="M461.15,291.07c-.92-.64-1.05-.58-1.71-1.59.96-.07,4.17-2.94,4.27-3.18,12.11.13,2.18-3.81,6.82-8.74.19-.2,4.26,0,3.41-3.18.22.12.68-.12.85,0,11.49,8.15-1.05,25.43-13.65,16.68Z"/>
            <path class="cls-10" d="M473.94,274.38c.85,3.18-3.22,2.98-3.41,3.18-8.8-1.58-6.58,8.11-6.82,8.74-.09.24-3.3,3.11-4.27,3.18-5.86-9.04,3.18-21.18,14.5-15.09Z"/>
            <path class="cls-8" d="M470.53,277.56c-4.65,4.93,5.28,8.86-6.82,8.74.25-.63-1.98-10.32,6.82-8.74Z"/>
          </g>
        </g>
      </g>
    </g>
  </g>
</svg>