<?xml version="1.0" encoding="UTF-8"?>
<svg id="Layer_1" data-name="Layer 1" xmlns="http://www.w3.org/2000/svg" viewBox="0 0 103.44 58.46">
  <defs>
    <style>
      .cls-1 {
        fill: #2b3391;
      }

      .cls-1, .cls-2, .cls-3, .cls-4, .cls-5 {
        stroke-width: 0px;
      }

      .cls-2 {
        fill: #3e59a8;
      }

      .cls-3 {
        fill: #435fac;
      }

      .cls-4 {
        fill: #69cdeb;
      }

      .cls-5 {
        fill: #fff;
      }
    </style>
  </defs>
  <g>
    <path class="cls-2" d="M26.59,31.08c3.01,2.45,5.13,6.08,5.5,10C34.13,62.7,2.11,64.28.09,45.08c-.11-1.05-.14-3.54,0-4.5,1.71-11.72,16.75-17.43,26.5-9.5Z"/>
    <path class="cls-4" d="M3.59,40.58c1.6-2.49,3.16-5.81,5.75-7.5,8.3-5.4,2.79,1.43,6.5,3.5,3.5,1.95,8.79-1.47,3.25-6.5,11.41,2.33,14.31,18.1,4.25,24-9.13,5.36-21.57-1.32-19.75-13.5Z"/>
    <path class="cls-5" d="M19.09,30.08c5.54,5.03.25,8.45-3.25,6.5-3.71-2.07,1.8-8.9-6.5-3.5-2.59,1.69-4.15,5.01-5.75,7.5,1.18-7.94,7.72-12.09,15.5-10.5Z"/>
  </g>
  <g>
    <path class="cls-1" d="M97.85,3.67c3.01,2.45,5.13,6.08,5.5,10,2.04,21.61-29.98,23.19-32,4-.11-1.05-.14-3.54,0-4.5,1.71-11.72,16.75-17.43,26.5-9.5Z"/>
    <path class="cls-3" d="M74.85,13.17c1.6-2.49,3.16-5.81,5.75-7.5,8.3-5.4,2.79,1.43,6.5,3.5,3.5,1.95,8.79-1.47,3.25-6.5,11.41,2.33,14.31,18.1,4.25,24-9.13,5.36-21.57-1.32-19.75-13.5Z"/>
    <path class="cls-5" d="M90.35,2.67c5.54,5.03.25,8.45-3.25,6.5-3.71-2.07,1.8-8.9-6.5-3.5-2.59,1.69-4.15,5.01-5.75,7.5,1.18-7.94,7.72-12.09,15.5-10.5Z"/>
  </g>
</svg>