<?xml version="1.0" encoding="UTF-8"?>
<svg id="Layer_1" data-name="Layer 1" xmlns="http://www.w3.org/2000/svg" xmlns:xlink="http://www.w3.org/1999/xlink" viewBox="0 0 509.8 510.9">
  <defs>
    <style>
      .cls-1 {
        fill: url(#linear-gradient);
      }

      .cls-1, .cls-2, .cls-3, .cls-4, .cls-5, .cls-6, .cls-7, .cls-8, .cls-9, .cls-10, .cls-11, .cls-12, .cls-13, .cls-14, .cls-15, .cls-16, .cls-17, .cls-18, .cls-19, .cls-20, .cls-21, .cls-22, .cls-23, .cls-24, .cls-25, .cls-26, .cls-27, .cls-28, .cls-29, .cls-30, .cls-31, .cls-32, .cls-33, .cls-34, .cls-35, .cls-36, .cls-37, .cls-38, .cls-39, .cls-40, .cls-41, .cls-42, .cls-43, .cls-44, .cls-45, .cls-46, .cls-47, .cls-48, .cls-49, .cls-50, .cls-51, .cls-52, .cls-53, .cls-54, .cls-55, .cls-56, .cls-57, .cls-58 {
        stroke-width: 0px;
      }

      .cls-2 {
        fill: url(#linear-gradient-2);
      }

      .cls-3 {
        fill: #f3dfed;
      }

      .cls-4 {
        fill: #f2eff7;
      }

      .cls-5 {
        fill: #4989c8;
      }

      .cls-6 {
        fill: #8378b8;
      }

      .cls-7 {
        fill: #7864ac;
      }

      .cls-8 {
        fill: #7b7cbb;
      }

      .cls-9 {
        fill: #637fbf;
      }

      .cls-10 {
        fill: #99dbf5;
      }

      .cls-11 {
        fill: #70c4ee;
      }

      .cls-12 {
        fill: #70cff5;
      }

      .cls-13 {
        fill: #957ab8;
      }

      .cls-14 {
        fill: #708fc9;
      }

      .cls-15 {
        fill: #5983c2;
      }

      .cls-16 {
        fill: #111216;
      }

      .cls-17 {
        fill: #cfd3eb;
      }

      .cls-18 {
        fill: #d1bfdd;
      }

      .cls-19 {
        fill: #c6e7e6;
      }

      .cls-20 {
        fill: #cbebf8;
      }

      .cls-21 {
        fill: #d8ecd8;
      }

      .cls-22 {
        fill: #d8eeed;
      }

      .cls-23 {
        fill: #ad9ecc;
      }

      .cls-24 {
        fill: #e2d9ec;
      }

      .cls-25 {
        fill: #e2c0dc;
      }

      .cls-26 {
        fill: #dee5f4;
      }

      .cls-27 {
        fill: #d6cce5;
      }

      .cls-28 {
        fill: #dbcae3;
      }

      .cls-29 {
        fill: #d3b4d6;
      }

      .cls-30 {
        fill: #bec0e1;
      }

      .cls-31 {
        fill: #beafd6;
      }

      .cls-32 {
        fill: #aae0f2;
      }

      .cls-33 {
        fill: #bcb9dd;
      }

      .cls-34 {
        fill: #a4b5dd;
      }

      .cls-35 {
        fill: #b397c7;
      }

      .cls-36 {
        fill: #b06aac;
      }

      .cls-37 {
        fill: #aca7d3;
      }

      .cls-38 {
        fill: #a987be;
      }

      .cls-39 {
        fill: #866baf;
      }

      .cls-40 {
        fill: #92bee6;
      }

      .cls-41 {
        fill: #9098cc;
      }

      .cls-42 {
        fill: #b4e4fa;
      }

      .cls-43 {
        fill: #c1d3ed;
      }

      .cls-44 {
        fill: #8cd6ed;
      }

      .cls-45 {
        fill: #baa4cf;
      }

      .cls-46 {
        fill: #8e8fc6;
      }

      .cls-47 {
        fill: #7d9acf;
      }

      .cls-48 {
        fill: #6c71b5;
      }

      .cls-49 {
        fill: #9186c0;
      }

      .cls-50 {
        fill: #8076b7;
      }

      .cls-51 {
        fill: #73aadc;
      }

      .cls-52 {
        fill: #e4e3f2;
      }

      .cls-53 {
        fill: #e6d9eb;
      }

      .cls-54 {
        fill: #edcfe3;
      }

      .cls-55 {
        fill: #e5f2e4;
      }

      .cls-56 {
        fill: #fefeff;
      }

      .cls-57 {
        fill: #f0e6f1;
      }

      .cls-58 {
        fill: #ebf7fa;
      }
    </style>
    <linearGradient id="linear-gradient" x1="236.05" y1="156.41" x2="241.32" y2="171.45" gradientUnits="userSpaceOnUse">
      <stop offset="0" stop-color="#faf6fa"/>
      <stop offset="1" stop-color="#d9b6d6"/>
    </linearGradient>
    <linearGradient id="linear-gradient-2" x1="255.31" y1="280.79" x2="247.53" y2="295.82" gradientUnits="userSpaceOnUse">
      <stop offset="0" stop-color="#efd8e9"/>
      <stop offset="1" stop-color="#9285bf"/>
    </linearGradient>
  </defs>
  <path class="cls-6" d="M173.25,95.21c-.39.42-.39,1-1.49,1.24,1.98.36-1.58,5.73-2.49,6.72-1.36,1.49-18.29,11.69-26.63,18.92-25.46,22.03-43.52,55.03-50.03,87.87-4.19,21.12-6.37,57.58,1,77.66,1.28,3.48,9.39,19.44,11.45,17.67,5.8,19.47,23.15,29.88,37.34,42.82,14.36,13.09,28.24,26.91,44.06,38.33,5.14,3.71,20.36,14.88,22.15,11.45,1.7,1.05,22.04,7.61,25.39,8.46,0,.31-1.17.98-1.24,1-6.74,1.15-31.04-6.93-41.57-2.99l1.49-2.99c9.6-.72,5.28-1.14,3.48-2.49-8.83-6.64-17.39-13.36-25.89-20.41-15.43-12.8-26.88-23.84-44.31-35.35-1.11-2.49.56-2.06.5-2.24-.34-.94-12.54-11.75-14.44-13.94-5.94-6.86-13.13-20.82-8.96-9.46,1.6,4.36,6.43,12.53,8.96,17.18.04.07-.09.45.5,1.49-1.32,2.5-.12,5.41.5,8.21.07.32-1.07.18-1,.5.58,2.39,11.5,14.96,2.99,10.21-5.01-6.83-9.28-13.53-13.44-20.91l4.48-.25c-3.55-7.18-6.99-14.43-10.45-21.66-1.86-7.85-5.13-15.29-6.97-23.15-1.53-6.54-4.12-27.28-4.98-28.88-.22-.41-.65-.25-1-.25-.67-70.47,27-130.85,90.61-164.79Z"/>
  <path class="cls-16" d="M157.82,388.44c11.22,7.73,20.7,14,34.85,12.94l-1.49,2.99c-.42.16-1.96.89-1.99,1.24,33.34,18.05,95.9,17.49,130.44,4.23,3.4,3.03,6.39-3.49,7.47-.75,1.2,3.04-6.54,2.01-4.98,6.72-25.37,11.35-56.2,13.1-83.64,10.45-13.48-1.3-26.77-4.18-39.58-8.46-3-1.57-6.07-3.22-9.21-4.48-5.9-2.38-12.23-4.68-17.92-7.47-2.08-1.02-4.48-1.9-6.47-2.99-.11-.06-1.08-.96-1.99-1.49-6.92-4.03-11.9-8.35-17.92-13.44-1.16-4.69,8.6-2.2,2.99-1.24-1.37,2.11,5.71,7.47,3.24-.25,2.78-1.07,7.75,7.27,6.22,1.99Z"/>
  <path class="cls-58" d="M270.33,70.32c-1.84,1.08,5.6,1.94,7.47,1,.32.04.68-.05,1,0-.62,1.72,8.36,2.13,10.45,2.49.16.03.34-.03.5,0-.07,1.24,6.2,3.31,6.47,1.49.16.04.34-.04.5,0,.2,2.09.9.48,1,.5,1.03.15,1.6.58,2.49,1,.17.08-1.22.84,2.49,1.24-1.47,1.77-4.82.53-4.48,2.24-3.61-.92-10.22-2.74-10.7-1.49-2.96-2.19-18.45-3.66-22.4-3.48-.38.02-.12.97-.5,1-30.07,1.75-55.61,12.55-76.67,34.35-3.17,3.28-9.66,10.59-11.7,14.19-3.21,5.66-1.44,3.45.5,4.23-3.61,1.47-9.34,3.36-12.45,4.98,4.48-16.3,11.33-26.79,24.89-36.84,4.61-3.42,10.04-5.44,14.19-9.46,3.6-1.86,13.61-4.86,12.2-8.46.5-.16,1-.34,1.49-.5.45,2.02,3.51-.47,3.73-.5,4.87-.66,9.99-.76,14.94-1.49,1.69-.25,1.87-1.48,1.99-1.49.34-.05.16,1.05.5,1,3.06-.46,16.12-1.73,16.93-1.99,1.96-.63-.14-1.28-3.73-1-6.3-.69,10.38-2.33,17.42-2.99.49.03,1-.04,1.49,0Z"/>
  <path class="cls-6" d="M408.73,332.19c-14.54,29.8-35.63,53.49-63.72,71.19-5.33,3.36-11.29,6.65-16.93,9.46-1.84.92-4.22,2.2-5.97,2.99-1.56-4.71,6.18-3.68,4.98-6.72-1.08-2.75-4.07,3.77-7.47.75,1.8-.69,3.68-1.7,5.48-2.49,6.67-2.94,12.71-6.68,18.92-10.45,21.14-12.85,35.23-26.32,49.78-46.3,4.79-6.58,8.96-12.81,12.94-19.91l1.99,1.49Z"/>
  <path class="cls-57" d="M400.27,154.46c-.49-.53-.79,1.99-.25,1.99.33,0,.34-1.89.25-1.99,2.57,2.92,5.15,9.27,5.97,5.48,5.52,9.49,9.11,17.42,12.45,27.88-.83,2.8,1.63,8.23,1.49,10.7-.75,13.95-13.96,6.71-10.95-1.74,2.29.27.21,4.38,2.24,5.48,7.19,3.88,7.93-12.15-.75-7.47l-.5-.5c.99-.89,1.68-.25,1.99-.75-5.51-21.18-16.76-41.29-30.37-58.5-4.05-5.12-8.39-9.84-12.45-14.94,7.45,6.85,14.91,14.4,21.41,22.15.52.63,6.07,12.2,9.46,12.2Z"/>
  <path class="cls-35" d="M406.24,159.93c-.82,3.8-3.4-2.55-5.97-5.48-3.39,0-8.93-11.57-9.46-12.2-6.5-7.76-13.95-15.3-21.41-22.15-5.81-5.34-16.3-14.19-22.65-18.42-1.2-.8-4.11-1.45-4.98-1.99-.98-.61-3.61-3.49-4.48-3.98-.05-.03-.5.78-1,.5-5.62-3.13-9.72-6.61-16.18-7.97-6.26-3.74-14.78-6.14-21.91-7.97-.34-1.71,3.01-.48,4.48-2.24-3.71-.41-2.32-1.17-2.49-1.24,41.67,11.84,84.29,45.77,106.04,83.14Z"/>
  <path class="cls-49" d="M419.19,306.3c-2.32,2.88-1.95,8.83-4.48,7.22-2.51,5.5-5.03,11.95-7.97,17.18-3.98,7.1-8.15,13.34-12.94,19.91-.59.04-.55-.42-.5-1,.1-1.21.79-1.22,0-1.74,5.82-7.31,11.29-15.55,15.43-23.9.07-.14.33-2.64.5-2.99,1.64-3.43,2.4-3.29,2.49-3.48.05-.11-.06-2.35,0-2.49.44-.96,4.19-7.05,4.98-8.96.21-.5-.86-1.12-.5-1.99.09-.21,2.83-3.08,2.99-3.48.27-.69-.27-2.8,0-3.48.25-.63,5.44-4.07,2.99-11.95,5.65-9.91,1.92-9.74,1.99-10.45.08-.82,2.29-4.77,2.49-16.18.13-7.34-.71-18.07-3.48-24.89,1.59-1.5,3.8,10.6,3.48-.25-.05-1.82-.77-11.37-1-12.94-.78-5.42-3.31-11.74-4.48-16.93-.24-1.07.59-1.34.5-1.99-.7-4.83-.3,7.89-6.97,7.72-5.3-.14-8.86-6.69-6.97-12.45.73-2.21,1.58-1.67,2.49-2.49l.5.5c-.11.06-1.39,1.71-1.49,1.99-3.01,8.46,10.21,15.69,10.95,1.74.13-2.48-2.33-7.9-1.49-10.7,5.01,15.71,10.17,36.77,7.97,53.02,4.12,21.93-.82,44.53-7.47,65.47Z"/>
  <path class="cls-16" d="M120.98,349.61c5.12,7.61,8.38,11.64,14.44,18.42,2.79,3.13,5.37,6.59,8.46,9.46-3.18.43-6.65-9.15-7.22-3.98-5.79-13.44-2.05,2.77-7.47-5.48-1.56,3.52,3.4,5.16,6.22,6.72,3.21,10.04,7.93,8.53,8.46,8.96.63.51.5,2.37-1,2.24-11.45-10.09-18.88-18.58-27.88-30.87,8.51,4.76-2.41-7.82-2.99-10.21-.08-.32,1.07-.18,1-.5-.62-2.8-1.82-5.71-.5-8.21,2.62,4.69,5.48,8.99,8.46,13.44Z"/>
  <path class="cls-6" d="M143.88,377.49c3.99,3.7,9.44,7.85,13.94,10.95,1.53,5.28-3.44-3.07-6.22-1.99,2.48,7.72-4.6,2.36-3.24.25,5.61-.95-4.15-3.44-2.99,1.24-.8-.68-1.63-1.23-2.49-1.99,1.5.13,1.62-1.73,1-2.24-.53-.43-5.25,1.08-8.46-8.96-2.82-1.56-7.78-3.2-6.22-6.72,5.42,8.25,1.68-7.96,7.47,5.48.57-5.17,4.03,4.41,7.22,3.98Z"/>
  <g>
    <path class="cls-52" d="M90.61,300.82c1.84,2.81,1.28,5.66,2.49,8.21.1.2.66-.59,2.49,3.24,3.46,7.23,6.9,14.47,10.45,21.66l-4.48.25c-1.89-3.36-17.03-32.03-14.19-33.85.72-.46,2.27.76,3.24.5Z"/>
    <path class="cls-24" d="M95.59,312.27c-1.83-3.83-2.39-3.03-2.49-3.24-1.21-2.55-.65-5.41-2.49-8.21-2.52-3.85-3.02-.4-3.98-1.24-2.42-2.12-3.93-34.42-3.98-39.58.35,0,.78-.16,1,.25.86,1.6,3.45,22.34,4.98,28.88,1.84,7.86,5.11,15.3,6.97,23.15Z"/>
  </g>
  <path class="cls-39" d="M193.17,85.25l1.49,2.99c-1.52.8-2.99,1.63-4.48,2.49-5.58,3.22-14.69,9.31-19.42,13.44l-1.49-1c.9-.99,4.47-6.36,2.49-6.72,1.11-.25,1.1-.82,1.49-1.24,3.07-3.33,15.35-7.93,19.91-9.96Z"/>
  <path class="cls-13" d="M219.05,78.28c-.62.18-1.38.3-1.99.5-.49.15-1,.33-1.49.5-7.22,2.37-14.18,5.44-20.91,8.96l-1.49-2.99c7.87-3.49,15.58-7.12,23.9-9.46l1.99,2.49Z"/>
  <path class="cls-35" d="M246.93,70.32l-3.24,2.49c-2.57-.85-8.19.05-8.21,1.49-4.79.7-11.66,2.57-16.43,3.98l-1.99-2.49c8.87-2.5,20.72-4.77,29.87-5.48Z"/>
  <path class="cls-39" d="M419.19,306.3c-3.51,11.06-5.41,15.54-10.45,25.89l-1.99-1.49c2.93-5.23,5.45-11.67,7.97-17.18,2.53,1.61,2.16-4.34,4.48-7.22Z"/>
  <path class="cls-24" d="M268.84,70.32c-7.04.66-23.72,2.29-17.42,2.99-5.58.91-11.03.28-15.93,1,.02-1.44,5.64-2.34,8.21-1.49l3.24-2.49c7.53-.58,14.38-.49,21.91,0Z"/>
  <path class="cls-28" d="M289.25,73.8c-2.09-.36-11.08-.77-10.45-2.49,3.45.53,7.13,1.37,10.45,2.49Z"/>
  <path class="cls-28" d="M296.22,75.3c-.27,1.82-6.54-.25-6.47-1.49,2.2.37,4.31.98,6.47,1.49Z"/>
  <path class="cls-28" d="M277.8,71.31c-1.86.95-9.31.08-7.47-1,2.49.2,4.99.65,7.47,1Z"/>
  <path class="cls-28" d="M297.71,75.8c-.1-.01-.79,1.59-1-.5.49.11.57.5,1,.5Z"/>
  <path class="cls-7" d="M170.76,104.17c-19.11,16.71-19.25,27.91-25.89,42.32-.67,1.45-2.91,3.06-1.99,4.48-1.37.79-2.51,1.94-3.48,2.49-.26.15-3.93.5-5.73,1.49-.95.52-2.17,2.04-2.99,2.49-7.29,3.98-14.28,4.77-20.66,20.66-1.74,4.34-4.73,15.13-3.98,19.67-7.47,9.51-9.24,21.18-2.99,31.86-3.62,20.91-4.01,55.53,1.99,75.67-2.06,1.77-10.17-14.19-11.45-17.67-7.37-20.08-5.18-56.55-1-77.66,6.51-32.84,24.57-65.84,50.03-87.87,8.35-7.22,25.28-17.43,26.63-18.92l1.49,1Z"/>
  <path class="cls-50" d="M320.12,402.38l4.98,4.98c-1.79.79-3.68,1.8-5.48,2.49-34.54,13.26-97.1,13.82-130.44-4.23.03-.36,1.57-1.09,1.99-1.24,10.53-3.94,34.83,4.14,41.57,2.99.08-.01,1.25-.69,1.24-1,29.25,7.45,57.74,6.57,86.13-3.98Z"/>
  <path class="cls-50" d="M208.6,397.9c-1.8,3.43-17.01-7.74-22.15-11.45-15.82-11.42-29.7-25.24-44.06-38.33-.06-1.62,4.03-2.27,5.23-1.99,1.75.41,23.68,20.39,27.38,23.4,11.37,9.26,23.97,17.13,33.6,28.38Z"/>
  <path class="cls-39" d="M125.96,343.14c-2.24-1.48-4.71-2.6-6.97-3.98-2.37-1.45-4.59-3.06-6.97-4.48-2.54-4.65-7.36-12.81-8.96-17.18-4.17-11.36,3.02,2.59,8.96,9.46,1.9,2.19,14.1,13,14.44,13.94.06.18-1.61-.25-.5,2.24Z"/>
  <path class="cls-42" d="M189.18,97.2c-13.56,10.05-20.41,20.54-24.89,36.84-.68.35-.47.48-.5.5-6.53,3.47-12.29,8.59-18.92,11.95,6.64-14.41,6.77-25.61,25.89-42.32,4.73-4.14,13.84-10.22,19.42-13.44.85,3.86-.48,3.85-1,6.47Z"/>
  <path class="cls-26" d="M189.18,97.2c.51-2.62,1.84-2.61,1-6.47,1.49-.86,2.96-1.69,4.48-2.49,6.73-3.52,13.69-6.59,20.91-8.96,1.41,3.61-8.6,6.61-12.2,8.46-4.15,4.02-9.58,6.04-14.19,9.46Z"/>
  <path class="cls-4" d="M251.41,73.31c3.6-.29,5.69.36,3.73,1-.81.26-13.87,1.54-16.93,1.99-.34.05-.16-1.05-.5-1-.12.02-.3,1.24-1.99,1.49-4.94.73-10.07.83-14.94,1.49-.22.03-3.29,2.52-3.73.5.62-.19,1.37-.31,1.99-.5,4.77-1.41,11.64-3.28,16.43-3.98,4.9-.72,10.35-.09,15.93-1Z"/>
  <path class="cls-38" d="M393.8,350.61c-14.56,19.98-28.65,33.45-49.78,46.3l-5.97-2.99c7.2-3.85,14.67-7.81,19.67-14.44,9.63-4.64,16.08-13.09,23.9-19.91.59-.51,4.83-.93,11.7-9.96-.05.58-.1,1.04.5,1Z"/>
  <path class="cls-13" d="M344.01,396.91c-6.21,3.77-12.25,7.51-18.92,10.45l-4.98-4.98c3.83-1.42,10.5-5.01,14.44-6.97,1.1-.55,2.36-.89,3.48-1.49l5.97,2.99Z"/>
  <path class="cls-26" d="M381.85,135.04c13.6,17.21,24.86,37.31,30.37,58.5-.31.5-1-.14-1.99.75-.91.82-1.76.28-2.49,2.49-.44-.05-1.28.2-1.49-.25-.52-1.09-2.75-15.31-5.97-23.4-.77-1.93-9.58-18.75-10.45-19.42-1.01-.76-1.56.37-2.49.25-3.03-6.79-8.27-14.16-12.94-19.91,2.77-2.19,6.12,1.75,7.47,1Z"/>
  <path class="cls-58" d="M369.4,120.1c4.05,5.1,8.4,9.82,12.45,14.94-1.35.76-4.7-3.19-7.47-1-15.08-18.54-35.77-31.15-54.27-45.8,6.46,1.36,10.56,4.83,16.18,7.97.5.28.95-.53,1-.5.87.49,3.5,3.38,4.48,3.98.87.54,3.78,1.19,4.98,1.99,6.35,4.23,16.84,13.08,22.65,18.42Z"/>
  <path class="cls-56" d="M409.23,196.77c.1-.28,1.38-1.93,1.49-1.99,8.68-4.68,7.93,11.35.75,7.47-2.03-1.1.05-5.21-2.24-5.48Z"/>
  <path class="cls-35" d="M400.27,154.46c.09.1.08,1.99-.25,1.99-.54,0-.24-2.52.25-1.99Z"/>
  <path class="cls-35" d="M423.17,233.61c.96,8.78.53,16,3.48,24.89-.2,11.41-2.41,15.36-2.49,16.18-.07.71,3.66.55-1.99,10.45,2.46,7.88-2.74,11.32-2.99,11.95-.27.69.27,2.8,0,3.48-.16.41-2.9,3.27-2.99,3.48-.36.87.71,1.49.5,1.99-.79,1.91-4.54,8-4.98,8.96-.06.14.05,2.38,0,2.49-.09.19-.85.05-2.49,3.48-.17.35-.43,2.85-.5,2.99-4.14,8.35-9.61,16.59-15.43,23.9.79.52.1.53,0,1.74-6.87,9.02-11.11,9.44-11.7,9.96-7.81,6.82-14.27,15.28-23.9,19.91-4.99,6.63-12.46,10.59-19.67,14.44-1.13.6-2.39.95-3.48,1.49-11.47-.19-22.64,2.93-34.1,2.99-3.56.02-12.2.14-13.19-1.99.52-.03,1.41-.37,3.48-.5,7.32-.44,10.33-.03,15.68-1,.24-.04.76-.96,1-1,2.28-.35,7.61,1.23,4.98-1.49,15.14,2,31.04-4.54,43.06-13.44,7.04-5.21,20.38-18.9,26.88-25.89,1.39-1.49,2.63-2.98,3.98-4.48,16.18-17.89,22.51-27.62,29.37-51.78,2.12-4.18,2.93-9.41,3.98-13.94,2.32-4.23,4.85-15.57,4.98-20.41.05-1.97-2.06-23.93-2.49-26.14-.02-.12-1.1-.16-1.49-1.99-1.8-8.46-4.77-17.03-5.97-25.14,6.67.17,6.27-12.55,6.97-7.72.09.65-.74.92-.5,1.99,1.17,5.18,3.7,11.5,4.48,16.93.23,1.58.94,11.13,1,12.94.32,10.85-1.89-1.25-3.48.25Z"/>
  <path class="cls-40" d="M426.66,258.51c-2.96-8.89-2.52-16.11-3.48-24.89,2.77,6.82,3.61,17.55,3.48,24.89Z"/>
  <g>
    <path class="cls-47" d="M125.96,343.14c17.43,11.51,28.88,22.54,44.31,35.35-1.79-.42-.43,2.1-.5,2.24-1.76,3.42-4.4-1.4-5.97.75-8.41-6.76-34.06-28.91-40.33-35.85-1.63-1.8-3.39-4.26-4.48-6.47,2.26,1.39,4.73,2.51,6.97,3.98Z"/>
    <path class="cls-51" d="M170.26,378.49c8.5,7.05,17.06,13.77,25.89,20.41.36,1.65-1.58.77-3.98,1-10.97-3.91-19.51-11.29-28.38-18.42,1.57-2.15,4.21,2.67,5.97-.75.07-.14-1.3-2.66.5-2.24Z"/>
    <g>
      <path class="cls-11" d="M192.17,399.89c2.4-.22,4.34.65,3.98-1,1.79,1.35,6.12,1.77-3.48,2.49-14.15,1.06-23.63-5.22-34.85-12.94-4.5-3.1-9.95-7.26-13.94-10.95-3.09-2.87-5.67-6.33-8.46-9.46.55.14,1.17-1.02,1.24-1,1.63.63,18.35,17.31,26.88,22.4,1.88,1.12,21.68,10.15,22.9,10.45,2.38.6,3.4.22,5.73,0Z"/>
      <path class="cls-12" d="M118.99,339.16c1.09,2.22,2.85,4.67,4.48,6.47l-2.49,3.98c-2.99-4.45-5.84-8.76-8.46-13.44-.58-1.04-.46-1.42-.5-1.49,2.38,1.42,4.6,3.03,6.97,4.48Z"/>
      <path class="cls-44" d="M163.79,381.47c8.86,7.13,17.41,14.51,28.38,18.42-2.32.22-3.35.6-5.73,0-1.22-.31-21.02-9.33-22.9-10.45-8.53-5.09-25.25-21.77-26.88-22.4-.07-.03-.7,1.13-1.24,1-6.05-6.78-9.32-10.81-14.44-18.42l2.49-3.98c6.27,6.93,31.92,29.08,40.33,35.85Z"/>
    </g>
  </g>
  <path class="cls-11" d="M143.38,237.6c.91,4.29,2.25,8.73,7.47,8.96-1,2.14-9.16.93-13.44,2.99-2.21-8.22-15.7-2.62-11.45,5.48-5.86-3.06,1.26,11.03,3.98,16.18,18,34.01,47.28,50.15,74.43,75.42,1.7.29,1.8-1.72,3.73-1.99-4.16,3.76-.51,4.25,1.99,6.47,3.12,2.78,13.19,11.01,14.94,10.45-.12,1.95,2.33,3.43,3.98,3.98,1.78.59,2.67.85,4.48,0,1.48,3.08,5.17,3.61,7.97,4.98,5.12,2.5,12.45,6.14,18.17,6.47,7.26.42.68-5.88,5.48-6.97.96-.22,11.43,8.22,18.17,4.48,1.12.99,2.84.46,2.99.5.05.01-.17.92.25,1,.69.12,13.25,1.13,13.94,1,.17-.03.39-.93.75-1.49,1.17,1.16,3.29,1.16,4.48,0,7.79,2.32,7.62-.48,9.46-6.97,13.75-4.95,19.83-2.21,25.89-2.49,3.3-.15,3.63-.36,6.47-1-2.98,4.27.92,3.66-2.99,8.46-6.03,2.27-11.95,3.85-18.17,5.48-.43.11-.2.98-.25,1-1.68.43-5.2,1.17-6.97,1.49-8.18,1.51-17.58,1.83-25.89,1.99-31.01.59-61.83-4.92-90.11-17.92-2.53-5.49-10.93-10.79-15.43-14.94-20.8-19.15-43.3-35.95-56.75-61.48-6.3-11.96-15.13-36.1-17.42-49.54.64.35,1.32.71,1.99,1,9.83,4.16,19.03,2.8,27.88-2.99Z"/>
  <path class="cls-23" d="M113.51,239.59c2.3,13.43,11.12,37.58,17.42,49.54,13.46,25.53,35.96,42.34,56.75,61.48-6.26-.19-5.88,1.47-6.22,1.49-4.33.25-11.57-3.84-14.44-6.97-7.56-5.06-24.69-19.09-30.62-25.64-3.56-5.69-8.65-10.47-12.45-15.93-1.69-2.43-2.38-7.24-5.48-7.22-.19-.67-.43-1.58-1-1.99,2.59.19-2.06-6.35-3.48-13.19-1.99-9.54-3.11-32.01-1.49-42.07.1.06.55.26,1,.5Z"/>
  <path class="cls-50" d="M117.49,294.35c.56.42.81,1.32,1,1.99,1.72,6.21-6.51,6.23-7.47,2.24-.95-3.97,2.86-6.89,6.47-4.23Z"/>
  <g>
    <path class="cls-35" d="M112.51,239.09c-1.62,10.06-.49,32.53,1.49,42.07,1.42,6.84,6.08,13.38,3.48,13.19-3.61-2.66-7.42.26-6.47,4.23.95,3.99,9.19,3.97,7.47-2.24,3.1-.02,3.79,4.79,5.48,7.22,3.8,5.47,8.88,10.24,12.45,15.93,5.93,6.55,23.06,20.58,30.62,25.64,2.87,3.13,10.11,7.22,14.44,6.97.34-.02-.04-1.69,6.22-1.49,4.5,4.14,12.91,9.45,15.43,14.94,3.03,6.58,2.55,13.55-1.49,19.67,29.54,13.97,53.9,13.15,85.63,11.2.99,2.13,9.63,2.01,13.19,1.99,11.46-.06,22.63-3.17,34.1-2.99-3.94,1.96-10.61,5.55-14.44,6.97-28.39,10.56-56.88,11.43-86.13,3.98-3.35-.85-23.69-7.41-25.39-8.46-9.64-11.25-22.23-19.12-33.6-28.38-3.7-3.01-25.63-22.99-27.38-23.4-1.2-.28-5.29.37-5.23,1.99-14.19-12.93-31.54-23.34-37.34-42.82-6-20.15-5.61-54.76-1.99-75.67,1.65,2.83,6.67,7.74,9.46,9.46Z"/>
    <path class="cls-9" d="M135.66,326.71c5.41-1.28,6.31,5.92,2.99,6.97-5.18,1.64-7.15-5.99-2.99-6.97Z"/>
  </g>
  <path class="cls-14" d="M139.4,153.46c-1.29,2.41,1.78.75,3.48,4.48-2.63-2.56-3.22-2.28-6.47-1.99-4.05.36-5.54,3.69-4.98,7.47-4.07,2.56-6.87,6.41-9.96,9.96-5.81,6.66-8.43,8.03-10.45,17.42-.03.12-.77-.29-.5,2.49-.67.51-.95,1.01-1.49,1.49-1.14,1.02-2.02,1.76-2.99,2.99-.75-4.54,2.24-15.32,3.98-19.67,6.38-15.89,13.37-16.68,20.66-20.66.82-.45,2.04-1.97,2.99-2.49,1.79-.99,5.47-1.35,5.73-1.49Z"/>
  <path class="cls-38" d="M150.85,154.95c-1.49.46-5.53,3.18-7.47,3.98,0-.05-.22-.39-.5-1-1.7-3.73-4.77-2.07-3.48-4.48.98-.55,2.11-1.7,3.48-2.49,1.6-.92,3.41-1.53,4.98-2.49,1.44,1.05,12.75-4.92,13.44-3.73l-10.45,10.21Z"/>
  <path class="cls-14" d="M147.86,148.48c-1.57.95-3.38,1.57-4.98,2.49-.92-1.42,1.32-3.03,1.99-4.48,6.62-3.35,12.38-8.48,18.92-11.95,3.26,2.99-3.78,4.53-10.21,8.96-1.47,1.01-5.21,4.66-5.73,4.98Z"/>
  <path class="cls-30" d="M305.18,144c.7,2.31,1.05,3.88-1,5.48-3.48-.59-4.71-1.38-6.47-4.48.54-1.71,1.59-1.42,1.99-2.49,1.78.55,3.69.89,5.48,1.49Z"/>
  <path class="cls-49" d="M378.86,279.91c-.56.13-2.98,4.79-5.97.5-1.96-5.57,5.8-6.44,5.97-.5Z"/>
  <path class="cls-30" d="M392.31,261c4.04,3.01.16,4.79-2.99,3.98,0-1.25-1.99-5.65,2.99-3.98Z"/>
  <path class="cls-58" d="M175.24,147.98c.7,6.35,4.46,12.27,6.97,18.17,1.56,3.67-.14,8.93,6.22,7.72,2.46,2.4,8.4,8.71,11.45,8.96,1.69,2.67-.29,3.99-.25,4.23.03.18,1.45,1.64,1.49,1.74.12.32.44,4.44,2.99,5.97-4.58,3.8-1.28,9.02-1.49,14.19-.06,1.48-2.01,1.63-1.49,4.23.48,2.42,1.54,3.35,3.98,2.99-.02.95,1.04,3.33,1,4.48-.02.53-1.6,1.36-1.49,3.48.1,2.07,2.03,3.58,3.98,3.48l4.98,16.93-9.96-1.99c-2.71-4.43-11.78-19.89-13.94-22.4,1.13-4.91-15.15-38.32-16.93-39.58-.75-.53-.07,1.02-1.49.75.21-2.25-.1-2.24-1-3.98-2.53-4.93-8.68-4.61-11.45-.25-.2.32-2.45,6.84-2.49,7.22-11.96-13.92-4.6-16.86-.5-22.4,10.34,1.2,24.54-4.75,9.96-9.96,3.11-1.61,6.3-2.6,9.46-3.98Z"/>
  <path class="cls-56" d="M155.83,161.92c1.29-1.75,2.71-4.4,3.48-6.47.67-.41,1.26-1.08,1.99-1.49,1.46-.82,3.04-1.25,4.48-1.99,14.58,5.21.38,11.16-9.96,9.96Z"/>
  <path class="cls-14" d="M161.3,153.96c-.73.41-1.32,1.09-1.99,1.49-4.79,2.92-9.56,5.83-12.94,10.45l-.5-1c.76-.73,4.51-4.82,3.98-5.73l-6.47,2.24c.1-.51.09-1.95,0-2.49,1.94-.81,5.98-3.52,7.47-3.98,2.83-.88,7.58-1.66,10.45-1Z"/>
  <path class="cls-56" d="M424.67,262.49c-.13,4.84-2.66,16.18-4.98,20.41-5.1,9.32-24.63,24.12-34.35,28.88-2.47,1.21-14.19,5.94-15.93,5.97,2.72-2.83,7.21-3.97,10.7-5.97,13.1-7.5,30.17-20.3,37.59-33.6,2.76-4.94,4.12-11.45,6.97-15.68Z"/>
  <path class="cls-35" d="M297.71,288.38c-3.2.26-5.46-2.43-3.98-5.48,2.93-6.03,11.93,2.45,3.98,5.48Z"/>
  <path class="cls-54" d="M382.35,353.1c-6.51,6.99-19.85,20.67-26.88,25.89-7.96.1-18.21,7.23-26.88,6.97.94-2.13.14-5.58-2.49-5.97.05-.01-.18-.88.25-1,6.22-1.63,12.14-3.21,18.17-5.48,14.72-5.54,25.23-10.91,37.84-20.41Z"/>
  <path class="cls-21" d="M415.7,296.84c-5.56,10.95-17.4,20.96-30.37,16.93.13-.6-.08-1.36,0-1.99,9.73-4.76,29.25-19.55,34.35-28.88-1.05,4.53-1.86,9.76-3.98,13.94Z"/>
  <path class="cls-54" d="M355.46,378.99c-12.02,8.91-27.92,15.44-43.06,13.44,2.63,2.72-2.7,1.14-4.98,1.49-.24.04-.75.95-1,1-5.35.96-8.36.56-15.68,1-.09-.69,2.3-1.67,2.99-1.99.36-.17,4.03.05,4.48-4.48,6.92-.04,15.09-.38,21.41-1.99,2.74,3.41,8.19.27,8.96-1.49,8.68.26,18.92-6.87,26.88-6.97Z"/>
  <path class="cls-12" d="M386.33,348.62c-1.35,1.5-2.6,2.99-3.98,4.48-12.61,9.5-23.12,14.87-37.84,20.41,3.91-4.81,0-4.19,2.99-8.46,8.68-1.94,30.33-11.26,38.83-16.43Z"/>
  <path class="cls-32" d="M254.4,354.09c-1.39,4.16,2.59,1.46,4.73,3.48,16.51-5.67,29.09,1.98,44.31,6.47,3.76,1.11,11.42.03,11.7,4.48-1.84,6.49-1.67,9.29-9.46,6.97,3.25-3.18-2.69-7.94-4.98-4.23-.56.91-.24,3.5.5,4.23-.36.56-.58,1.46-.75,1.49-.69.13-13.25-.87-13.94-1-.42-.08-.2-.98-.25-1,4-.55,2.83-6.75-.75-6.97-3.25-.2-4.9,4.11-2.24,6.47-6.74,3.74-17.21-4.7-18.17-4.48-4.79,1.09,1.78,7.39-5.48,6.97-5.72-.33-13.05-3.97-18.17-6.47,1.49-2.28,2-5.55.5-7.97.07-2,4.9.3,6.22.5,3.4.5,26.69,2.45,27.63,1.24,5.01-6.44-25.88-1.52-26.88-10.21,2.29.49,3.14.68,5.48,0Z"/>
  <path class="cls-32" d="M282.78,350.61c-.26,2.65,2.13,3.86,4.48,3.48.91,3.5,21.89,5.61,29.62,6.47,2.31.26,13-.4,14.19,0,1.47.5,2.89,4.41,7.47,1.49l2.49,3.98c-6.06.28-12.14-2.46-25.89,2.49-.28-4.45-7.94-3.37-11.7-4.48-15.22-4.5-27.8-12.15-44.31-6.47-2.14-2.02-6.12.68-4.73-3.48,2.19-.64,4.43-2.51,5.48-4.48,5.63,2.07,15.54.2,22.9,1Z"/>
  <path class="cls-54" d="M319.12,381.47c-.17,2.01-.93,4.19.5,5.97-6.32,1.61-14.48,1.95-21.41,1.99.05-.53.1-1.58,0-1.99-.55-2.28-2.36-3.2-4.48-2.99l-.5-1c8.31-.16,17.71-.48,25.89-1.99Z"/>
  <path class="cls-13" d="M326.09,379.98c2.63.39,3.43,3.84,2.49,5.97-.77,1.76-6.22,4.9-8.96,1.49-1.43-1.78-.67-3.97-.5-5.97,1.77-.33,5.29-1.07,6.97-1.49Z"/>
  <path class="cls-13" d="M286.26,375c-.15-.04-1.87.49-2.99-.5-2.66-2.36-1.01-6.67,2.24-6.47,3.58.22,4.75,6.42.75,6.97Z"/>
  <path class="cls-13" d="M305.68,375.5c-1.19,1.16-3.31,1.16-4.48,0-.74-.74-1.06-3.32-.5-4.23,2.29-3.7,8.23,1.06,4.98,4.23Z"/>
  <path class="cls-49" d="M210.09,351.11c-2.5-2.22-6.15-2.72-1.99-6.47,4.29-.6,6.43,4.91,1.99,6.47Z"/>
  <g>
    <path class="cls-47" d="M241.95,362.56c1.51,2.41,1,5.69-.5,7.97-2.8-1.37-6.49-1.9-7.97-4.98.34-.16,1.37-2.46,5.97-4.48.64.38,2.04.77,2.49,1.49Z"/>
    <g>
      <path class="cls-47" d="M228.51,358.08c2.04-.34,5.89,1.22,7.97,1.99-4.24,6-8.08,2.72-7.47,5.48-1.65-.55-4.1-2.04-3.98-3.98.02-.25,1.47-3.15,3.48-3.48Z"/>
      <path class="cls-37" d="M239.47,361.06c-4.6,2.02-5.64,4.32-5.97,4.48-1.81.85-2.7.59-4.48,0-.61-2.76,3.23.53,7.47-5.48.99.37,2.04.44,2.99,1Z"/>
    </g>
  </g>
  <g>
    <path class="cls-54" d="M293.23,383.47l.5,1c-2.91.29-3.83,2.94-3.48,5.48.26,1.95,1.67,3.27,3.48,3.98-.69.32-3.07,1.3-2.99,1.99-2.08.12-2.97.47-3.48.5-31.73,1.95-56.09,2.77-85.63-11.2,4.05-6.11,4.52-13.09,1.49-19.67,28.28,13,59.11,18.51,90.11,17.92Z"/>
    <path class="cls-49" d="M217.81,381.97c.52-.18,8.12.98,5.23,6.22-3.57,6.47-11.81-3.98-5.23-6.22Z"/>
    <path class="cls-49" d="M227.77,381.97c6.13-1.47,5.91,7.11,1,6.97-3.5-.1-4.53-6.12-1-6.97Z"/>
  </g>
  <path class="cls-13" d="M293.73,384.46c2.12-.21,3.93.7,4.48,2.99-2.94,1.07-4.57,3-7.97,2.49-.34-2.54.57-5.19,3.48-5.48Z"/>
  <path class="cls-50" d="M298.21,389.44c-.45,4.53-4.12,4.31-4.48,4.48-1.82-.72-3.22-2.03-3.48-3.98,3.4.52,5.03-1.42,7.97-2.49.1.41.05,1.46,0,1.99Z"/>
  <path class="cls-46" d="M131.43,163.42c.69,4.63,6.75,8.89,14.44,1.49l.5,1c-4.08,5.57-7.16,15.45-9.96,21.91-9.5-2.42-18.14-.37-25.89,5.48-.27-2.78.47-2.37.5-2.49,1.99-1.29,11.17-15.7,11.45-16.68.23-.8-.47-.85-1-.75,3.09-3.54,5.88-7.4,9.96-9.96Z"/>
  <g>
    <path class="cls-9" d="M136.41,155.95c-6.55,6.84,5.5,13.08,6.97,5.48l6.47-2.24c.53.9-3.22,4.99-3.98,5.73-7.69,7.4-13.75,3.13-14.44-1.49-.56-3.78.93-7.11,4.98-7.47Z"/>
    <path class="cls-56" d="M142.88,157.94c.28.61.49.94.5,1,.09.54.1,1.98,0,2.49-1.47,7.61-13.52,1.37-6.97-5.48,3.25-.29,3.84-.57,6.47,1.99Z"/>
  </g>
  <path class="cls-15" d="M111.02,190.8c2.03-9.39,4.65-10.77,10.45-17.42.53-.1,1.22-.05,1,.75-.28.98-9.46,15.39-11.45,16.68Z"/>
  <path class="cls-22" d="M213.58,244.57l1.74,1.99c3.1-.07,6.22,2.52,7.72,2.99-1.22,3.53,1.79,3.82,1.99,3.98.27.22.29,2.48,4.23,1.99,1.17.88.65,1.91.75,1.99-2.94,2.54-7.17,6.29-.25,2.99,2.65,4.43,2.53,1.15,3.73.5.18-.1.36-.09,1-.5.3-.19,2.78-.78,3.98-2.99,2.03-.5,4.72.65,6.97-2.99,3.32,2.47,6.6,2.6,10.45,1.99-.31,5.25-8.94-3.05-1,10.95-10.18-1.14-20.06,4.32-21.91,14.94-9.5-8.05-17.24-18.39-23.9-28.88l-1-1.99c-2.19-2.55-2.8-6.21-4.48-8.96l9.96,1.99Z"/>
  <path class="cls-27" d="M206.61,183.33c-4.83,7.62,4.75,7.25,3.98.5.26.07.68-.04,1,0,1,.68,2.21,1.73,2.49,2.99-4.53,16.21-17.09-.54-7.47-3.48Z"/>
  <path class="cls-13" d="M211.59,183.83c-.32-.04-.74.07-1,0-1.88-.52-1.74-1.18-3.98-.5-9.62,2.94,2.94,19.7,7.47,3.48,1.58,7.08-4.49,11.24-9.96,7.97-2.55-1.53-2.87-5.65-2.99-5.97.26-6.23,5.52-8.34,10.45-4.98Z"/>
  <path class="cls-23" d="M212.58,135.54c2.69,7.14-7.3,8.3-7.47,1,1.62-.61,2.71-4.51,7.47-1Z"/>
  <path class="cls-47" d="M232.5,134.54c-2.63.47-4.05-.97-4.48-1-5.41-11.48,17.55-9.77,7.72,0,5.13-8.74-9.99-8.12-4.98-.5,4.52.88,1.68,1.19,1.74,1.49Z"/>
  <path class="cls-45" d="M208.6,227.64c-1.95.09-3.88-1.41-3.98-3.48,3.67,3.39,2.33-1.36,4.23,1l.75-4.48c4.05,1.76,2.44,6.81-1,6.97Z"/>
  <path class="cls-41" d="M205.11,216.19c-2.44.37-3.5-.57-3.98-2.99.34-3.31,5.09-3.19,5.48-.25.21,1.57-1.48,2.68-1.49,3.24Z"/>
  <path class="cls-23" d="M233.49,261c-1.2.65-1.08,3.93-3.73-.5-6.92,3.3-2.69-.45.25-2.99,1.35,1.13,2.64,1.74,3.48,3.48Z"/>
  <path class="cls-29" d="M209.59,220.67l-.75,4.48c-1.9-2.35-.56,2.39-4.23-1-.11-2.13,1.47-2.95,1.49-3.48,1.3-.87,2.13-.59,3.48,0Z"/>
  <path class="cls-50" d="M225.03,253.53c-.2-.16-3.21-.45-1.99-3.98.31.09,1.64-1.01,1.74-1,3.35.64,3.7,4.65.25,4.98Z"/>
  <g>
    <path class="cls-58" d="M232.5,134.54c.13.69.49.46.5.5,2.31,10.62,4.96,12.75,2.24,14.44-.32.2-4.34.13-4.23,1.99-20.61,9.39-4.69,43.28,17.42,30.37.02,22.41-11.99,33.16-2.99,53.77-5.98,4.63-6.02,14.45,0,18.92-2.25,3.64-4.94,2.49-6.97,2.99-.3.07-5.22-.3-3.98,2.99-.64.4-.82.4-1,.5-.84-1.75-2.13-2.36-3.48-3.48-.09-.08.42-1.11-.75-1.99-3.94.49-3.96-1.77-4.23-1.99,3.45-.33,3.1-4.34-.25-4.98-.1-.02-1.44,1.09-1.74,1-1.5-.47-4.62-3.06-7.72-2.99l-1.74-1.99-4.98-16.93c3.44-.16,5.05-5.21,1-6.97-1.36-.59-2.18-.87-3.48,0,.05-1.15-1.01-3.53-1-4.48,0-.55,1.7-1.66,1.49-3.24-.39-2.95-5.14-3.06-5.48.25-.52-2.6,1.43-2.75,1.49-4.23.22-5.17-3.08-10.39,1.49-14.19,5.46,3.28,11.54-.88,9.96-7.97-.28-1.26-1.49-2.3-2.49-2.99-4.93-3.36-10.19-1.25-10.45,4.98-.04-.11-1.46-1.56-1.49-1.74-.05-.24,1.94-1.56.25-4.23-3.05-.25-8.99-6.56-11.45-8.96-6.36,1.22-4.66-4.04-6.22-7.72-2.51-5.9-6.27-11.82-6.97-18.17,5.87-2.57,11.36-5.25,17.42-7.47,4.06-1.48,8.36-2.43,12.45-3.98.16,7.3,10.16,6.14,7.47-1,1.15-.88,14.47-2.04,15.43-1.99.43.02,1.85,1.47,4.48,1Z"/>
    <g>
      <path class="cls-35" d="M231.25,187.81c6.89-2.01,8.96,7.71,3.48,8.96-7.15,1.63-7.63-7.76-3.48-8.96Z"/>
      <path class="cls-47" d="M184.95,147.49c4.52-.74,5.68,6.09,1.49,6.97-5.48,1.15-5.11-6.38-1.49-6.97Z"/>
      <path class="cls-49" d="M207.85,150.47c6.73-2.27,5.52,8.92,0,5.97-2.57-1.37-1.75-5.38,0-5.97Z"/>
      <path class="cls-47" d="M204.86,168.4c3.62-1.29,4.84,4.03,2.49,4.98-3.85,1.56-4.68-4.2-2.49-4.98Z"/>
      <path class="cls-50" d="M229.26,203.74c3.04-1.32,5.08,2.89,2.49,4.48-2.91,1.79-5.09-3.35-2.49-4.48Z"/>
      <path class="cls-50" d="M238.47,257.51c-1.2,2.21-3.68,2.8-3.98,2.99-1.24-3.29,3.68-2.91,3.98-2.99Z"/>
    </g>
  </g>
  <g>
    <path class="cls-42" d="M192.67,140.52c-6.06,2.21-11.55,4.89-17.42,7.47-3.16,1.38-6.35,2.38-9.46,3.98-1.44.74-3.02,1.17-4.48,1.99-2.88-.67-7.62.12-10.45,1l10.45-10.21c-.69-1.18-12,4.78-13.44,3.73.52-.32,4.26-3.96,5.73-4.98,6.42-4.44,13.47-5.97,10.21-8.96.03-.02-.18-.14.5-.5,3.11-1.62,8.84-3.51,12.45-4.98,6.38-2.6,12.76-5.13,19.42-6.97,2.96,3-3.04,4.7-3.48,7.72-.73,4.93,5.11,4.25,0,10.7Z"/>
    <path class="cls-42" d="M232.99,115.62c-.26,2.01,9.39,6.41,12.2,7.47,7.81,2.94,34.73,7.39,34.6,14.44-15.49-2.39-31.16-2.71-46.8-2.49,0-.03-.37.19-.5-.5-.06-.31,2.77-.61-1.74-1.49-5.02-7.62,10.1-8.25,4.98.5,9.83-9.77-13.13-11.48-7.72,0-.97-.05-14.29,1.11-15.43,1.99-4.76-3.52-5.85.38-7.47,1-4.09,1.55-8.39,2.5-12.45,3.98,5.11-6.45-.73-5.77,0-10.7.45-3.02,6.44-4.72,3.48-7.72,11.79-3.26,24.65-5.62,36.84-6.47Z"/>
    <g>
      <path class="cls-26" d="M305.18,144c-1.79-.6-3.7-.94-5.48-1.49-.05-.02.18-.86-.25-1-4.66-1.41-14.57-3.2-19.67-3.98.13-7.05-26.79-11.5-34.6-14.44-2.8-1.05-12.45-5.45-12.2-7.47,25.19-1.76,49.78,1.48,73.43,10.45,28.21,10.71,87.33,47.64,89.11,81.65-21.13-31.43-55.01-51.81-90.36-63.72Z"/>
      <path class="cls-17" d="M291.49,122.1c4.79,4.5,1.98,8.6-1.49,7.47-1.57-.51-3.86-4.7,1.49-7.47Z"/>
    </g>
  </g>
  <g>
    <path class="cls-9" d="M239.47,149.97v.5c-12.43.28-22.08,19.33-9.21,28.38,13.94,9.8,32.26-9.93,21.16-22.9v-1.49c.42.68,6.31,5.14,5.48,14.19-.39,4.28-4.73,11.01-8.46,13.19-22.11,12.91-38.04-20.98-17.42-30.37,3.63-1.66,4.82-1.44,8.46-1.49Z"/>
    <path class="cls-1" d="M251.41,155.95c11.1,12.97-7.22,32.7-21.16,22.9-12.87-9.05-3.22-28.1,9.21-28.38,3.05-.07,9.85,3.03,11.95,5.48Z"/>
  </g>
  <g>
    <path class="cls-13" d="M349.99,251.54c-22.07,1.73-8.66,19.84-.75,18.42,3.14-.56,13.4-10.85,1.24-18.42,9.74,2.89,11.07,18.14,0,20.91-13.52,3.38-19.75-9.9-10.95-19.42,2.74-.78,3.76-3.09,10.45-1.49Z"/>
    <g>
      <path class="cls-24" d="M349.99,251.54c.16.04.35-.04.5,0,12.16,7.57,1.89,17.86-1.24,18.42-7.91,1.42-21.32-16.69.75-18.42Z"/>
      <path class="cls-56" d="M348,266.97c.68-5.64,1.92-7.85-2.49-12.45.24-.09.49-1.73,4.23-.5,6.34,2.08,3.51,12.08-1.74,12.94Z"/>
      <path class="cls-57" d="M345.51,254.52c4.41,4.59,3.17,6.81,2.49,12.45-.38.06-.52.23-.75.5-.33-1.85-3.2-10.62-3.24-11.2-.24-3.54,1.14-.65,1.24-.75.45-.41.19-.97.25-1Z"/>
    </g>
  </g>
  <g>
    <path class="cls-49" d="M264.86,230.63c-1.5,1.17-4.52,2.08-6.47,1.99-13.16-.58-10.52-22.48,3.73-17.92,7.08,2.26,8.01,11.8,2.74,15.93Z"/>
    <path class="cls-43" d="M256.89,216.69c-.4,2.01,3.41,1.17,4.98,1,4.39,4.08-.71,8.69-.5,9.21.04.1,2.12-.46,1.99.5-.21,1.6-4.21.31-6.72,1.24-4.89-3.13-5.89-8.3-1.49-12.45,1.21,1.54,1.11.54,1.74.5Z"/>
    <path class="cls-57" d="M261.87,217.68c-1.57.17-5.38,1.01-4.98-1,1.27-.09,2.05-1.73,4.98,1Z"/>
  </g>
  <g>
    <path class="cls-27" d="M382.35,254.03l-.5.5c-4.8-2.41-5.79.45-8.96,3.73,5.35,6.45,8.01,5.56,10.45-2.24,4.48,5.89-3.13,10.74-4.23,10.95-4.28.81-9.75-6.94-7.22-11.45,3.21-3.7,6.43-4.06,10.45-1.49Z"/>
    <path class="cls-46" d="M380.85,267.96c-6.32,2.55-7.66-.99-10.45-2.49-1.53-4.39-1.58-6.42,1.49-9.96-2.53,4.51,2.94,12.26,7.22,11.45,1.11-.21,8.71-5.06,4.23-10.95-.17-.22-1.4-1.45-1.49-1.49l.5-.5c5.54,3.54,4.44,11.54-1.49,13.94Z"/>
    <path class="cls-4" d="M381.85,254.52c.09.05,1.33,1.28,1.49,1.49-2.45,7.8-5.1,8.69-10.45,2.24,3.17-3.28,4.17-6.14,8.96-3.73Z"/>
  </g>
  <g>
    <path class="cls-56" d="M298.21,80.28c7.13,1.83,15.64,4.22,21.91,7.97,18.49,14.66,39.19,27.27,54.27,45.8,4.68,5.75,9.92,13.13,12.94,19.91,5.98,13.43,9.88,40.48,13.94,56.51,1.79,7.05,7.85,22.23,7.47,23.4-.42,1.3-2.84.04-2.49,1.74-1.5.24-2.23.75-3.48,1.49-8.13,4.79-9.01,15.48-2.49,21.91-1.67-.73-1.8-.85-3.73-.5-3.5-7.83-5.92.27-9.46-2.49-1.06,6.35,3.62,3.35,3.98,3.48,1.65.63,1.17,1.44,1.24,1.49-4.98-1.67-2.98,2.74-2.99,3.98-.02,7.03-.53,4.94-.5,5.23.05.47,1.43.03,1.49.5.04.27-2.12,1.83,1,3.98-1.16.68-.4,8.1.75,8.21,4.61-3.16,11.27-9.31,10.7-6.22-.25,1.33-16.75,12.86-16.93,13.94-.14.88,2.53,3.2,2.74,3.24,1.52.3,13.56-8.77,15.43-10.45,4.17-3.75,7.37-8.17,11.2-12.2-4.86,7.71-20.45,33.05-31.12,26.63-3.52-2.12-2.09-10.63-10.95-11.45-.8-8.61-2.48.7-5.23-2.24-1.76-1.88-1.1-12.09,2.74-4.23,1.74-6.06.78-.74,1.24.25.22.46.94.17,1,.25,2.99,4.29,5.41-.37,5.97-.5,1.4-.32,8.51,2.02,8.96,1.24l-6.97-13.19c5.94-2.4,7.04-10.4,1.49-13.94-4.03-2.57-7.25-2.21-10.45,1.49-3.07,3.54-3.02,5.57-1.49,9.96-.56-.3-7.6-6.89-10.95-1.74-.89,1.36.35,5.83-4.48,8.46,6.31,5.32-.88,2.74-4.48.25,11.07-2.77,9.74-18.02,0-20.91-.15-.04-.34.04-.5,0-6.69-1.59-7.71.71-10.45,1.49-.31.09-.86-.21-1.74,1-4.27-3.4-9.1-9.85-9.46-6.97-.23-1.81-4.88-5.79-5.97-4.48-1.42-2.34-21.67-15.04-23.4-15.93-.97-.5-6.09-2.21-6.72-.25-.45,8.71-5.31,5.46-6.22,5.73-.25.07-1,2.6-4.48,1.49-3.95,5.18-3.81,1.94-4.48,1.99-.21.02-.83,1.01-1,1-4.33-.38-7.84-3.41-11.2-5.97,5.27-4.13,4.34-13.67-2.74-15.93-14.25-4.55-16.9,17.34-3.73,17.92l1,1.99c-4.35-2.24-10.06-2.01-13.94,1-9.01-20.61,3.01-31.36,2.99-53.77,3.73-2.18,8.07-8.91,8.46-13.19.83-9.05-5.06-13.51-5.48-14.19-.63-1.03-.93-1.21-1.49-2.49,4.84-3.92-2.59-9.27-1-1-3.49-.1-3.49-1.08-9.46-1-3.64.05-4.83-.16-8.46,1.49-.11-1.86,3.91-1.79,4.23-1.99,2.72-1.69.07-3.82-2.24-14.44,15.63-.22,31.3.1,46.8,2.49,5.1.78,15,2.58,19.67,3.98.43.13.2.98.25,1-.4,1.07-1.46.78-1.99,2.49-1.26,4.01,2.91,7.26,6.47,4.48,2.05-1.6,1.69-3.17,1-5.48,35.34,11.92,69.23,32.29,90.36,63.72-1.78-34.01-60.91-70.94-89.11-81.65-23.65-8.98-48.24-12.21-73.43-10.45-12.19.85-25.05,3.21-36.84,6.47-6.65,1.84-13.03,4.37-19.42,6.97-1.94-.78-3.71,1.43-.5-4.23,2.04-3.59,8.53-10.91,11.7-14.19,21.06-21.8,46.59-32.6,76.67-34.35.38-.02.12-.98.5-1,3.95-.17,19.44,1.3,22.4,3.48.49-1.24,7.1.57,10.7,1.49Z"/>
    <g>
      <path class="cls-47" d="M266.6,160.93c5.51-.92,6.91,6.96,1.99,7.97-6.41,1.32-6.4-7.23-1.99-7.97Z"/>
      <path class="cls-30" d="M321.36,174.37c5.83-1.4,6.09,6.81,1.99,7.47-4.71.76-5.77-6.56-1.99-7.47Z"/>
      <path class="cls-30" d="M344.76,236.6c4.65-.53,5.71,6.65,1.49,7.47-5.72,1.12-5.6-7-1.49-7.47Z"/>
      <path class="cls-47" d="M320.37,217.18c5.14-.93,5.43,6.17,1.99,6.97-5.09,1.18-6.8-6.1-1.99-6.97Z"/>
      <g>
        <path class="cls-30" d="M329.08,201.25c-3.93,5.4-11.64-2.49-6.97-6.47,2.85,2.11,3.97,6.26,6.97,6.47Z"/>
        <path class="cls-30" d="M329.08,201.25c-3-.21-4.12-4.37-6.97-6.47,3.84-3.27,10.31,1.89,6.97,6.47Z"/>
      </g>
      <path class="cls-49" d="M261.12,187.81c4.42-.75,4.91,5.68,1.99,6.47-4.73,1.28-5.71-5.84-1.99-6.47Z"/>
      <path class="cls-40" d="M248.92,150.97c.17.87.97.93,1,1,.56,1.28.86,1.46,1.49,2.49v1.49c-2.09-2.45-8.9-5.54-11.95-5.48v-.5c5.97-.08,5.97.9,9.46,1Z"/>
      <path class="cls-37" d="M304.19,149.48c-3.56,2.78-7.73-.47-6.47-4.48,1.76,3.1,2.99,3.89,6.47,4.48Z"/>
      <g>
        <path class="cls-27" d="M288.25,185.82c-4.32,3.09-3.7-.22-7.47-1.49-.73-8.05,11.08-5.56,7.47,1.49Z"/>
        <path class="cls-49" d="M288.25,185.82c-2.19,4.28-7.07,2.96-7.47-1.49,3.77,1.28,3.14,4.59,7.47,1.49Z"/>
      </g>
      <path class="cls-14" d="M249.92,151.97c-.03-.06-.83-.12-1-1-1.59-8.27,5.83-2.93,1,1Z"/>
      <g>
        <path class="cls-49" d="M301.7,186.82c-1.63.34-2.98,1.71-3.98,2.99-.69.87-2.86,1.89-1.99,5.23.13.51,6.28,6.56,6.72,6.72,6.45,2.38,8.01-.79,9.21-5.48.18-.7,1.33-4.72,1-5.48,8.57,14.14-11.99,20.85-17.92,10.7-3.5-5.98-.08-14.68,6.97-15.68v1Z"/>
        <path class="cls-33" d="M312.65,190.8c-.22-.5-5.62-4.3-9.96-3.98-.32.02-.69-.06-1,0v-1c4.65-.66,8.49.91,10.95,4.98Z"/>
        <path class="cls-24" d="M312.65,190.8c.34.76-.82,4.78-1,5.48-7.78,5.79-10.36,4.6-13.44-3.98,3.34,1.31,9.38-3.35,4.48-5.48,4.34-.32,9.73,3.48,9.96,3.98Z"/>
        <path class="cls-27" d="M298.21,192.29c3.08,8.58,5.66,9.78,13.44,3.98-1.2,4.69-2.76,7.85-9.21,5.48-.45-.16-6.59-6.21-6.72-6.72-.87-3.34,1.3-4.35,1.99-5.23-.7,3.54.44,2.33.5,2.49Z"/>
        <path class="cls-56" d="M302.69,186.82c4.9,2.13-1.14,6.79-4.48,5.48-.06-.16-1.2,1.05-.5-2.49,1.01-1.28,2.35-2.65,3.98-2.99.3-.06.67.02,1,0Z"/>
      </g>
      <g>
        <path class="cls-49" d="M349.49,204.74c-8.67,3.96,3.11,20.3,7.47,3.98,2.72,8.81-8.72,11.16-11.95,5.23-2.18-4.01-.47-8.85,4.48-9.21Z"/>
        <g>
          <path class="cls-27" d="M356.96,208.72c-4.35,16.31-16.14-.02-7.47-3.98,1.18-.09,1.55,1.21,1.49-.5,2.87-.08,5.18,1.91,5.97,4.48Z"/>
          <path class="cls-49" d="M350.98,204.24c.06,1.71-.31.41-1.49.5.07-.03-.44-.44,1.49-.5Z"/>
          <path class="cls-56" d="M352.23,205.24c1.68.67.49,6.29-2.49,5.48-3.33-.91.33-6.34,2.49-5.48Z"/>
        </g>
      </g>
      <g>
        <path class="cls-46" d="M392.8,235.6c1.33,13.98-21.49,7.42-12.94-3.98-1.28,9.94,8.47,13.76,12.94,3.98Z"/>
        <g>
          <path class="cls-27" d="M392.8,235.6c-4.47,9.78-14.23,5.96-12.94-3.98,4.74-6.33,12.42-1.56,12.94,3.98Z"/>
          <path class="cls-56" d="M383.59,229.63c6.94-1.61,7.46,6.24,3.98,7.97-7.46,3.71-8.96-6.81-3.98-7.97Z"/>
        </g>
      </g>
      <g>
        <path class="cls-9" d="M270.83,207.73c-.73,3.45.3,5.34,1.99,7.97,1.51,2.34,3.27,3.82,5.97,4.48,6.43,1.56,11.46-3.5,11.95-8.46,2.72,1.24-1.35,2.89.5,4.48-4.6,13.94-28.33,7.06-21.41-8.96l1,.5Z"/>
        <g>
          <path class="cls-49" d="M291.24,216.19c-1.85-1.59,2.22-3.25-.5-4.48.05-.48.03-1.01,0-1.49-.51-8.21-9.54-11.1-15.93-6.97-1.46.94-3.62,2.78-3.98,4.48l-1-.5c5.85-13.55,26.74-7.2,21.41,8.96Z"/>
          <path class="cls-54" d="M290.74,210.21c.03.48.05,1.02,0,1.49-.49,4.96-5.52,10.02-11.95,8.46l4.23-1.49c.22-.4-7.02-5.05-7.47-4.98-2.43.37,1.08,2.27-2.74,1.99-1.7-2.63-2.72-4.52-1.99-7.97.36-1.7,2.52-3.54,3.98-4.48-1.1,1.12,5.17-.86,7.72.5,3.47,1.86.81,2.9,1.24,4.23.15.44,4.4,6.33,6.97,2.24Z"/>
          <path class="cls-29" d="M278.8,220.17c-2.71-.66-4.47-2.14-5.97-4.48,3.81.28.31-1.62,2.74-1.99.45-.07,7.69,4.58,7.47,4.98l-4.23,1.49Z"/>
          <path class="cls-56" d="M290.74,210.21c-2.57,4.09-6.82-1.8-6.97-2.24-.44-1.33,2.23-2.38-1.24-4.23-2.55-1.36-8.82.62-7.72-.5,6.39-4.13,15.42-1.24,15.93,6.97Z"/>
        </g>
      </g>
    </g>
  </g>
  <g>
    <path class="cls-47" d="M404.25,238.09c-1.52.69-2.7,2.52-3.48,3.98-1.58,2.94-2.26,4.89-1.49,8.46.92,4.3,5.77,6.53,5.48,7.22-.33.79-3.92-2.46-3.48,1.74-.38-.13-.63-.34-1-.5-6.52-6.43-5.65-17.12,2.49-21.91l1.49,1Z"/>
    <path class="cls-49" d="M420.68,248.05c-.13,3.87-2.76,9.37-6.22,11.45-6.63,3.97-10.29,1-13.19,0-.44-4.2,3.15-.95,3.48-1.74.29-.69-4.55-2.92-5.48-7.22,2.81,2.43,4.71,5.35,8.46,6.47,6.95,2.09,11.44-2.36,11.95-8.96h1Z"/>
    <path class="cls-54" d="M418.69,242.57c-3.42.49-4.14-3.18-7.72-3.48-6.27-.54-11.29,2.92-1,2.49,2,2.54,6.57,4.02,9.71,3.98.09.72.06,1.75,0,2.49-.51,6.6-5,11.05-11.95,8.96,4.77-.39-1.67-.18-1-4.23-5.46-3.38-6.9-4.43-5.97-10.7.78-1.46,1.97-3.29,3.48-3.98,4.82-2.2,11.85-.58,14.44,4.48Z"/>
    <path class="cls-29" d="M407.74,257.01c-3.75-1.13-5.65-4.04-8.46-6.47-.77-3.57-.09-5.53,1.49-8.46-.92,6.27.51,7.33,5.97,10.7-.67,4.05,5.77,3.84,1,4.23Z"/>
    <path class="cls-4" d="M418.69,242.57c.43.84.88,2.07,1,2.99-3.13.04-7.71-1.45-9.71-3.98-10.3.43-5.28-3.03,1-2.49,3.58.31,4.3,3.98,7.72,3.48Z"/>
  </g>
  <path class="cls-42" d="M155.83,161.92c-4.1,5.55-11.46,8.49.5,22.4-.12,1.11.05,5.05,1.24,5.48,2.43-1.15,9.5-2.73,10.7-3.48l7.97,29.37c-1.03,0-5.59-.22-5.97.25-.1,3.21,4.7,10.53,3.98,12.94-.3,1.01-4.59,3.06-6.97,2.74-1.83-.25-9.53-6.52-12.45-7.47.1-.27.34-1.38.5-1.99,3.3-12.62-1.02-24.67-12.45-31.36-1.65-.97-4.68-2.53-6.47-2.99,2.79-6.45,5.87-16.34,9.96-21.91,3.39-4.62,8.15-7.54,12.94-10.45-.78,2.07-2.19,4.73-3.48,6.47Z"/>
  <path class="cls-20" d="M189.68,220.17c-.81-.95-1.8-1.74-2.24-2.99-3.81-.26-7.35-1.47-11.2-1.49l-7.97-29.37c2.2-1.38,2.76-2.52,2.99-4.98,1.42.27.74-1.27,1.49-.75,1.78,1.26,18.05,34.67,16.93,39.58Z"/>
  <path class="cls-21" d="M301.2,306.8c-11.35,2.33-13.83-7.32-24.89-13.44,15.74-5.65,12.67-3.19,24.89,13.44Z"/>
  <g>
    <path class="cls-55" d="M258.38,256.02c10.59,10.41,24.14,17.17,35.35,26.88-1.48,3.05.78,5.73,3.98,5.48,6.78,7.53,16.39,11.75,25.89,14.94.04.17-.05.38,0,.5,1.77,4.02,14.03,8.68,18.17,10.95,9.27.4,18.6.48,27.63,2.99,1.74-.03,13.46-4.77,15.93-5.97-.08.63.13,1.39,0,1.99-.49,2.32-4.42,8.56-4.98,12.2l-10.21,4.73c-15.29-17.55-14.3-9.85-31.36-1.99l-13.94-10.45-16.93-1.99c-2.92-2.65-4.45-6.37-6.72-9.46-12.22-16.64-9.16-19.09-24.89-13.44-.24-.13-2.92-.14-4.98-2.49,1.98-10.04-5.95-22.22-16.43-23.4-7.95-14.01.69-5.7,1-10.95.83-.13,1.69-.21,2.49-.5Z"/>
    <path class="cls-23" d="M317.38,309.78c3.53-1.12,4.28,4.8,1.49,5.48-3.45.83-3.5-4.84-1.49-5.48Z"/>
  </g>
  <path class="cls-18" d="M339.53,355.59c1.54,2.7,1.29,2.52,0,4.98-10.47,6.73-10.63-11.72,0-4.98Z"/>
  <path class="cls-38" d="M287.26,354.09c-2.35.37-4.74-.83-4.48-3.48.53-5.31,10.62-3.03,4.48,3.48Z"/>
  <g>
    <path class="cls-19" d="M176.24,215.69c3.86.02,7.39,1.24,11.2,1.49.44,1.25,1.43,2.04,2.24,2.99,2.16,2.52,11.23,17.97,13.94,22.4,1.68,2.75,2.29,6.42,4.48,8.96-2.8,1.92-22.59-10.72-21.91-5.23.16,1.24,19.89,8.42,22.9,7.22,6.66,10.48,14.39,20.83,23.9,28.88-4.69,26.93,34.04,30.26,38.33,8.46,2.06,2.34,4.74,2.35,4.98,2.49,11.06,6.13,13.54,15.77,24.89,13.44,2.27,3.09,3.8,6.81,6.72,9.46l16.93,1.99,13.94,10.45c17.06-7.86,16.08-15.56,31.36,1.99l10.21-4.73c.56-3.64,4.49-9.88,4.98-12.2,12.97,4.03,24.81-5.98,30.37-16.93-6.86,24.16-13.19,33.89-29.37,51.78-8.5,5.16-30.16,14.49-38.83,16.43-2.85.64-3.18.84-6.47,1l-2.49-3.98c1.35-.86.77-1.06,1-1.49,1.29-2.46,1.54-2.28,0-4.98-3.32-5.83-11.11-.51-8.46,4.98-1.19-.4-11.88.26-14.19,0-7.73-.86-28.72-2.97-29.62-6.47,6.14-6.52-3.95-8.79-4.48-3.48-7.37-.79-17.27,1.07-22.9-1,.3-.57.92-1.59,1-1.99.03-.16-.02-.34,0-.5,1.43-11.4-10.38-15.31-16.93-9.96-7.13-31.09-11.86-18.19-20.66-21.41-3.12-1.14-14.65-17.52-19.17-14.44.11-1.75-.94-2.84-1-2.99-1.18-3.36-1.75-2.92-3.48-5.48,13.97-18.2-1.94-42.35-24.39-37.34-4.17-4.37-7.79-17.34-7.97-23.9,2.38.32,6.67-1.72,6.97-2.74.71-2.41-4.08-9.74-3.98-12.94.39-.47,4.95-.26,5.97-.25Z"/>
    <g>
      <path class="cls-42" d="M208.1,251.54l1,1.99c-3.01,1.2-22.75-5.98-22.9-7.22-.69-5.49,19.1,7.15,21.91,5.23Z"/>
      <g>
        <path class="cls-27" d="M300.2,340.65s.21-.2.5.5c0,5.63-6.96,9.78-9.96,4.73-3.73-6.27,5.11-11.77,9.46-5.23Z"/>
        <path class="cls-49" d="M300.2,340.65c-4.35-6.54-13.18-1.04-9.46,5.23,3,5.05,9.96.9,9.96-4.73,3.8,9.15-8.51,11.87-11.95,5.73-4.47-7.98,7.65-14.27,11.45-6.22Z"/>
      </g>
      <path class="cls-35" d="M267.59,309.78c4.93-.81,7.08,6.89,2.49,7.97-6.05,1.42-6.71-7.27-2.49-7.97Z"/>
      <path class="cls-35" d="M323.35,347.62c6.69-1.3,5.87,10.18-.5,7.47-3.03-1.29-2.83-6.82.5-7.47Z"/>
      <path class="cls-49" d="M285.52,319.74c4.78-.63,4.02,8.62-1,5.97-2.98-1.57-1.22-5.68,1-5.97Z"/>
      <path class="cls-35" d="M339.53,355.59c-10.63-6.74-10.47,11.71,0,4.98-.23.43.36.63-1,1.49-4.57,2.91-6-1-7.47-1.49-2.65-5.49,5.14-10.8,8.46-4.98Z"/>
    </g>
  </g>
  <path class="cls-11" d="M241.46,348.12c.99,3.27,4.27,5.29,7.47,5.97,1,8.69,31.9,3.77,26.88,10.21-.94,1.2-24.23-.74-27.63-1.24-1.32-.2-6.15-2.5-6.22-.5-.45-.72-1.85-1.12-2.49-1.49-.94-.55-2-.63-2.99-1-2.08-.77-5.92-2.33-7.97-1.99-8.08-11.68.68-18.31,5.73-15.93,2.79,1.32,3.62,6.83,7.22,5.97Z"/>
  <path class="cls-11" d="M159.31,289.37c4.73,8.04,15.46,12.45,24.39,11.95,2.01-.11,2.21-.45,2.49-.5v8.96c-2.59.2-4.31,1.91-4.98,4.48-11.46-4.02-18.49-13.72-24.89-23.4.01-.16.01-.34,0-.5l2.99-1Z"/>
  <path class="cls-45" d="M156.32,290.37c.01.16.01.34,0,.5-.4,5.7-9.46,6.66-9.46.75,0-5.79,9.01-7.89,9.46-1.24Z"/>
  <path class="cls-49" d="M186.2,309.78c3-.23,3.07.73,3.98,1.49-5.06-3.8-9.73,4.1-4.73,7.47,6.11,4.13,7.55-5.35,4.73-7.47,10.32,8.66-12.62,17.07-8.96,2.99.67-2.57,2.39-4.29,4.98-4.48Z"/>
  <g>
    <path class="cls-23" d="M150.85,246.56c-5.21-.23-6.55-4.67-7.47-8.96,2.14-1.4,5.85-4.9,7.47-6.97,11.71,4.18,8.07,16.28,0,15.93Z"/>
    <path class="cls-56" d="M152.09,234.61c6.08-2.01,7.46,8.66,1,7.47-3.34-.62-3.73-6.56-1-7.47Z"/>
  </g>
  <g>
    <path class="cls-49" d="M137.41,249.54c2.23,8.31-8.24,11.59-11.45,5.48-4.25-8.09,9.24-13.7,11.45-5.48Z"/>
    <path class="cls-27" d="M131.68,248.55c2.39-.85,4.36,5,0,4.98-1.74-.01-1.22-4.54,0-4.98Z"/>
  </g>
  <path class="cls-56" d="M210.59,183.83c.77,6.75-8.81,7.12-3.98-.5,2.24-.69,2.1-.03,3.98.5Z"/>
  <g>
    <path class="cls-9" d="M254.9,267.47c10.48,1.18,18.41,13.36,16.43,23.4-4.29,21.8-43.03,18.47-38.33-8.46,1.85-10.61,11.72-16.08,21.91-14.94Z"/>
    <path class="cls-2" d="M249.17,269.96c23.6-3.59,26.51,31.76,4.48,33.36-21.07,1.53-23.8-30.41-4.48-33.36Z"/>
  </g>
  <g>
    <path class="cls-58" d="M407.74,196.77c-1.89,5.76,1.67,12.31,6.97,12.45,1.21,8.11,4.18,16.68,5.97,25.14.39,1.83,1.47,1.87,1.49,1.99.43,2.21,2.54,24.17,2.49,26.14-2.85,4.23-4.21,10.74-6.97,15.68-7.42,13.3-24.49,26.11-37.59,33.6-3.5,2-7.98,3.15-10.7,5.97-9.03-2.51-18.36-2.59-27.63-2.99-4.15-2.27-16.4-6.94-18.17-10.95,8.97.27-2.05-9.54,0-.5-9.5-3.19-19.11-7.4-25.89-14.94,7.95-3.02-1.05-11.51-3.98-5.48-11.21-9.72-24.76-16.47-35.35-26.88.03-.01-.2-.17.5-.5,8.9-4.19,9.77-16.37,1-20.41.05-.6-.39-.44-.5-.5l-1-1.99c1.95.09,4.98-.82,6.47-1.99,3.36,2.56,6.87,5.59,11.2,5.97.17.01.79-.98,1-1,.67-.05.53,3.19,4.48-1.99,3.49,1.11,4.23-1.42,4.48-1.49.92-.27,5.77,2.98,6.22-5.73.63-1.96,5.75-.26,6.72.25,1.73.9,21.98,13.59,23.4,15.93,1.09-1.31,5.75,2.67,5.97,4.48.36-2.88,5.19,3.57,9.46,6.97.88-1.21,1.44-.91,1.74-1-8.8,9.52-2.57,22.8,10.95,19.42,3.6,2.49,10.79,5.07,4.48-.25,4.83-2.63,3.59-7.1,4.48-8.46,3.35-5.14,10.39,1.44,10.95,1.74,2.8,1.5,4.13,5.04,10.45,2.49l6.97,13.19c-.45.78-7.56-1.56-8.96-1.24-.18-5.95-7.93-5.07-5.97.5-.05-.08-.78.21-1-.25-.47-.99.5-6.3-1.24-.25-3.84-7.86-4.5,2.35-2.74,4.23,2.75,2.94,4.43-6.37,5.23,2.24,8.86.82,7.43,9.33,10.95,11.45,10.66,6.42,26.26-18.92,31.12-26.63-3.83,4.03-7.03,8.45-11.2,12.2-1.87,1.68-13.91,10.75-15.43,10.45-.21-.04-2.88-2.36-2.74-3.24.18-1.08,16.68-12.61,16.93-13.94.57-3.09-6.09,3.06-10.7,6.22-1.15-.12-1.91-7.54-.75-8.21-3.12-2.15-.96-3.71-1-3.98-.06-.47-1.44-.03-1.49-.5-.03-.29.48,1.8.5-5.23,3.15.81,7.02-.97,2.99-3.98-.08-.06.41-.87-1.24-1.49-.36-.14-5.04,2.87-3.98-3.48,3.54,2.76,5.96-5.34,9.46,2.49,1.93-.35,2.06-.23,3.73.5.37.16.61.37,1,.5,2.91,1,6.56,3.97,13.19,0,3.47-2.08,6.1-7.58,6.22-11.45.26-8.09-6.54-13.72-14.44-12.45-.35-1.7,2.07-.44,2.49-1.74.38-1.17-5.68-16.35-7.47-23.4-4.06-16.03-7.96-43.08-13.94-56.51.93.12,1.48-1.01,2.49-.25.88.67,9.69,17.48,10.45,19.42,3.22,8.09,5.46,22.31,5.97,23.4.21.45,1.05.2,1.49.25Z"/>
    <g>
      <path class="cls-40" d="M420.68,248.05h-1c.06-.74.09-1.77,0-2.49-.11-.92-.57-2.15-1-2.99-2.59-5.06-9.61-6.68-14.44-4.48l-1.49-1c1.26-.74,1.98-1.25,3.48-1.49,7.89-1.27,14.7,4.35,14.44,12.45Z"/>
      <path class="cls-56" d="M356.21,288.87c.86-.13,10.63,11.86,10.7,12.7.11,1.29-2.97,4.23-3.24,4.23-.83,0-11.61-10.88-11.7-11.7-.06-.6,3.78-5.16,4.23-5.23Z"/>
      <path class="cls-29" d="M339.53,279.42c.13.31-.53.7-.5.75.21.35,3.66,1.06.25,6.72-3.46-2.76-6.28-1.23-4.73-6.47,1.4-1.16,3.36-1.36,4.98-1Z"/>
      <path class="cls-45" d="M308.92,263.48c3.85-.49,5.18,5.96,1.99,6.97-4.9,1.55-6.25-6.42-1.99-6.97Z"/>
      <path class="cls-35" d="M334.55,280.41c-1.55,5.24,1.27,3.71,4.73,6.47,3.41-5.66-.03-6.37-.25-6.72-.03-.05.63-.43.5-.75,4.19.93,3.89,8.08.25,8.96-5.8,1.41-8.7-5.1-5.23-7.97Z"/>
      <path class="cls-34" d="M365.17,269.46c3.48-.46,4.34,5.07,1.49,5.97-4.77,1.51-5.29-5.47-1.49-5.97Z"/>
      <path class="cls-56" d="M345.76,297.34c4.17-.97,5.02,5.52,1.49,5.97-3.5.45-4.7-5.23-1.49-5.97Z"/>
      <path class="cls-49" d="M318.37,264.98c4.34-1.66,5.59,4.71,2.49,5.48-3.38.84-5.14-4.46-2.49-5.48Z"/>
      <path class="cls-13" d="M303.44,274.44c3.48-1.24,4.35,4.14,1.99,4.98-3.48,1.24-4.35-4.14-1.99-4.98Z"/>
      <path class="cls-38" d="M329.33,274.44c2.92-.38,3.55,4.81,1.49,5.48-2.93.95-4.79-5.04-1.49-5.48Z"/>
      <path class="cls-13" d="M276.06,254.52c3.75-.9,4.99,6.74-1,3.98-1.29-.59-.15-3.71,1-3.98Z"/>
      <path class="cls-36" d="M323.6,303.81c-.05-.12.04-.32,0-.5-2.05-9.05,8.97.77,0,.5Z"/>
      <g>
        <path class="cls-13" d="M327.58,280.41c-13.33,1.47-6.87,14,.75,10.45,2.44-1.14,2.64-5.55,2.24-7.97,8.29,10.31-10.08,17.92-12.7,5.48-12.22,3.02-7.81-10.25,1.99-4.98,1.37-2.72,5.03-3.53,7.72-2.99Z"/>
        <g>
          <path class="cls-27" d="M330.57,282.9c.4,2.42.2,6.83-2.24,7.97-7.61,3.55-14.07-8.99-.75-10.45,1.38.28,2.18,1.49,2.99,2.49Z"/>
          <path class="cls-56" d="M323.85,283.4c2.38-.39,4.41,3.92,1.49,4.48-4.59.88-3.57-4.14-1.49-4.48Z"/>
        </g>
      </g>
      <g>
        <path class="cls-9" d="M287.51,233.12c21.58-3.59,23.15,23.25,6.97,26.88-20.07,4.51-23.5-24.13-6.97-26.88Z"/>
        <path class="cls-54" d="M287.76,235.11c.77.81-.02.95,0,1-3.98,2.82-5.94,4.17-1.49,6.97.47.29-.07,1.47,1.74,1.49,1.05.01,3.43-2.49,5.48-1.99.48.12,2.61,2.95,3.48,3.48,2.5,1.51,4.68-.22,4.73,2.99-1.22,3.62-2.22,3.95-4.98,5.97-7.14,2.56-16.75-6.11-15.43-13.44,1.42-3.39,2.83-5.26,6.47-6.47Z"/>
        <path class="cls-24" d="M301.7,249.05c-.05-3.21-2.23-1.48-4.73-2.99-.88-.53-3-3.37-3.48-3.48-2.05-.5-4.43,2-5.48,1.99-1.81-.02-1.27-1.2-1.74-1.49,5.76-4.04,2.45-4.38,1.49-6.97-.02-.05.77-.19,0-1,9.06-3.02,17.7,2.78,13.94,13.94Z"/>
        <path class="cls-13" d="M281.28,241.58c-1.32,7.33,8.29,16,15.43,13.44-1.1.81-2.72,2.76-4.23,2.99-8.17,1.24-14.74-7.63-12.2-16.18.14-.44.97-.19,1-.25Z"/>
        <path class="cls-4" d="M286.26,243.07c-4.44-2.8-2.49-4.15,1.49-6.97.96,2.59,4.27,2.93-1.49,6.97Z"/>
      </g>
    </g>
  </g>
  <g>
    <path class="cls-50" d="M259.38,234.61c.11.06.55-.11.5.5v.5c-5.04-2.72-10.1-1.18-13.44,2.99-.47.59-2.9,1.75-1.99,4.98-.65-.09-.66,1.89-.5,2.99,1.49,10.02,15.23,7.92,6.72,9.46l8.21-.5c-.7.33-.46.49-.5.5-.8.29-1.66.37-2.49.5-3.85.61-7.13.47-10.45-1.99-6.02-4.47-5.98-14.29,0-18.92,3.88-3.01,9.59-3.23,13.94-1Z"/>
    <path class="cls-49" d="M258.88,255.52l-8.21.5c8.51-1.54-5.23.57-6.72-9.46,3.92-.51,4.63.96,4.98,1-.03.41.05.94,0,1-4.69,4.91,10.5,5,11.95,2.99.74,1.21,2.15-2.16,2.49-2.99.21-.52,3.99-2.98-.5-9.96-.62-.97-2.02-2.46-2.99-2.99v-.5c8.77,4.05,7.91,16.22-1,20.41Z"/>
    <path class="cls-24" d="M262.86,238.59c4.49,6.98.71,9.44.5,9.96.02-2.42-1.62,3.06-3.24-1-2.2.47-9.05.25-11.2,0-.35-.04-1.06-1.51-4.98-1-.16-1.09-.15-3.08.5-2.99l.25,1.99-.25-1.99c-.91-3.23,1.52-4.39,1.99-4.98,5.49.25,11.08,1.33,16.43,0Z"/>
    <path class="cls-4" d="M259.88,235.6c.97.52,2.36,2.02,2.99,2.99-5.35,1.33-10.93.25-16.43,0,3.34-4.17,8.4-5.7,13.44-2.99Z"/>
    <path class="cls-28" d="M263.36,248.55c-.33.82-1.75,4.2-2.49,2.99-1.02-2.37-2.5-1.06-5.97-1-2.62-2.44-3.42-1.53-4.48-1.49-.84.03-1.55.16-1.49-.5.05-.06-.03-.59,0-1,2.16.25,9,.47,11.2,0,1.62,4.06,3.26-1.43,3.24,1Z"/>
    <path class="cls-35" d="M248.92,248.55c-.06.66.65.53,1.49.5,4.62,4.5,4.2,1.5,4.48,1.49,3.47-.06,4.96-1.37,5.97,1-1.45,2.01-16.64,1.92-11.95-2.99Z"/>
    <path class="cls-50" d="M244.44,243.57l.25,1.99-.25-1.99Z"/>
    <path class="cls-45" d="M254.9,250.54c-.28,0,.14,3.01-4.48-1.49,1.06-.04,1.86-.95,4.48,1.49Z"/>
  </g>
  <g>
    <path class="cls-54" d="M260.87,347.12c-.02.16.03.34,0,.5-5.44,5.29-11.4,9.01-16.43,1.74,5.21-.81-2.42-3.03,1.49-3.48-6.1-12.75,12.84-12.63,14.44-2.99.36,2.14-1.7,4.37.5,4.23Z"/>
    <path class="cls-13" d="M260.87,347.12c-2.2.14-.14-2.09-.5-4.23-1.6-9.64-20.53-9.76-14.44,2.99-3.92.45,3.72,2.67-1.49,3.48,5.03,7.27,10.99,3.55,16.43-1.74-.08.4-.69,1.42-1,1.99-1.04,1.97-3.29,3.85-5.48,4.48-2.34.68-3.18.49-5.48,0-3.19-.68-6.48-2.7-7.47-5.97-1.06-3.51-.47-8.53,2.49-10.95,6.55-5.35,18.36-1.44,16.93,9.96Z"/>
    <path class="cls-24" d="M251.66,340.65c1.12-.61,1.77,1.07,1,1.49-1.12.61-1.77-1.07-1-1.49Z"/>
  </g>
  <g>
    <path class="cls-29" d="M203.12,298.33c.67,3.86-1.44,2.14-3.24,5.48-2.27-1.64-6.44-2.88-5.73-5.97,1.44-.91,4.4-3.58,5.48-4.98,1.73,2.56,2.31,2.12,3.48,5.48Z"/>
    <path class="cls-3" d="M198.89,295.84c.78-.24,3.34,2.37,1.49,2.99-2.17.72-2.92-2.55-1.49-2.99Z"/>
  </g>
  <path class="cls-31" d="M190.18,311.28c2.82,2.12,1.38,11.59-4.73,7.47-5-3.37-.33-11.26,4.73-7.47Z"/>
  <g>
    <path class="cls-32" d="M167.28,231.62c.17,6.55,3.79,19.52,7.97,23.9-6.58,1.47-11.97,7.16-14.94,12.94-3.65,7.12-5.32,13.55-1,20.91l-2.99,1c-.45-6.64-9.46-4.55-9.46,1.24,0,5.91,9.06,4.96,9.46-.75,6.4,9.68,13.43,19.38,24.89,23.4-3.65,14.08,19.28,5.68,8.96-2.99-.91-.76-.98-1.72-3.98-1.49v-8.96c1.55-.27,2.99-.4,4.48-1,4.6,7.85,10.04,6.28,10.45,7.22-2,7.11,8.09,8.11,8.96,2.74.76-4.65-3.49-6.7-7.47-4.98.15-.72,1.44-2.66,1.49-3.48,4.52-3.08,16.04,13.3,19.17,14.44,8.8,3.22,13.53-9.68,20.66,21.41-2.96,2.42-3.55,7.44-2.49,10.95-3.6.85-4.43-4.66-7.22-5.97-5.04-2.38-13.8,4.25-5.73,15.93-2.02.33-3.47,3.24-3.48,3.48-1.75.56-11.81-7.68-14.94-10.45,4.44-1.56,2.3-7.07-1.99-6.47-1.93.27-2.03,2.28-3.73,1.99-27.15-25.27-56.43-41.41-74.43-75.42-2.72-5.15-9.84-19.24-3.98-16.18,3.21,6.12,13.69,2.83,11.45-5.48,4.29-2.06,12.44-.84,13.44-2.99,8.07.35,11.71-11.75,0-15.93.79-1.01,3.69-5.65,3.98-6.47,2.91.95,10.62,7.22,12.45,7.47Z"/>
    <path class="cls-49" d="M203.12,298.33c.05.15,1.11,1.24,1,2.99-.05.82-1.34,2.76-1.49,3.48-.06.26-1.81,3.05-1,5.23.67,1.79,5.47,3.44,8.46-.25-.88,5.38-10.96,4.37-8.96-2.74-.42-.94-5.86.63-10.45-7.22.19-.07,2.94-1.64,3.48-1.99-.71,3.1,3.45,4.33,5.73,5.97,1.79-3.34,3.91-1.62,3.24-5.48Z"/>
    <path class="cls-45" d="M148.61,277.42c6.73-1.84,6.81,8.49,1.49,8.46-4.1-.02-5.34-7.41-1.49-8.46Z"/>
    <g>
      <path class="cls-45" d="M235.98,328.2c4.08,1.48,3.99,6.56,1,8.96-7.84,2.74-9.55-10.29-1-8.96Z"/>
      <path class="cls-49" d="M235.98,328.2c-8.56-1.32-6.85,11.7,1,8.96-8.57,6.87-11.98-12.94-1-8.96Z"/>
      <path class="cls-53" d="M233.24,329.7c2.87-.87,4.56,4.2,1.99,4.98-2.87.87-4.56-4.2-1.99-4.98Z"/>
    </g>
  </g>
  <g>
    <path class="cls-18" d="M210.09,309.78c-2.99,3.69-7.79,2.04-8.46.25-.82-2.18.94-4.97,1-5.23,3.98-1.72,8.22.33,7.47,4.98Z"/>
    <path class="cls-4" d="M204.86,305.8c1.95-.48,2.96,2.79,1.99,3.48-2.65,1.9-4.27-2.93-1.99-3.48Z"/>
  </g>
  <g>
    <path class="cls-16" d="M110.02,200.76c-4.78,6.51-5.69,15.37-3.48,22.9,1.51,5.16,7.79,11.83,12.94,13.44l-3.98,3.48c-.67-.28-1.35-.65-1.99-1-.44-.24-.9-.44-1-.5-2.78-1.72-7.81-6.63-9.46-9.46-6.25-10.68-4.48-22.35,2.99-31.86.96-1.23,1.85-1.96,2.99-2.99-.75,2.38-.06,3.75,1,5.97Z"/>
    <path class="cls-5" d="M155.33,222.16c-.16.61-.4,1.72-.5,1.99-.29.82-3.2,5.47-3.98,6.47-1.62,2.07-5.33,5.57-7.47,6.97-8.85,5.79-18.05,7.14-27.88,2.99l3.98-3.48c9.19,2.88,17.9.1,24.89-5.97,1.97-1.71,3.63-3.18,4.98-5.48.18-.3.34-.68.5-1,4.44.46,3.92-2.27,5.48-2.49Z"/>
    <path class="cls-5" d="M136.41,187.81c1.79.45,4.82,2.02,6.47,2.99l-1,2.99c-.42-.24-2.21-.71-2.99-1-9.22-3.41-16.74-2.07-24.39,3.98-.86.68-4.17,3.56-4.48,3.98-1.06-2.22-1.74-3.6-1-5.97.54-.49.82-.99,1.49-1.49,7.75-5.85,16.38-7.89,25.89-5.48Z"/>
    <path class="cls-48" d="M155.33,222.16c-1.55.22-1.04,2.94-5.48,2.49,1.89-3.69,3.07-7.73,2.99-11.95-.14-6.82-4.79-15.47-10.95-18.92l1-2.99c11.43,6.69,15.74,18.75,12.45,31.36Z"/>
    <g>
      <path class="cls-8" d="M115,197.77c.22.62.3,2.24.5,2.99.13.51.73.84.5,1.99-1-1.29-1.27-2.49-1.74-3.98-4.99,5.81-10.75,12.14-1.74,17.18.11,7.11,6.82,9.57,13.19,7.22.22.17,1.26,5.15,1.24,5.48,0,.15-1.49.81-.75,2.99-1.95-.22-4.78.3-6.47,0-5.81-1.05-11.27-9.07-13.19-7.97-2.2-7.53-1.29-16.39,3.48-22.9.31-.42,3.62-3.3,4.48-3.98-.19,1.17.48.94.5,1Z"/>
      <path class="cls-14" d="M126.95,228.63c4.45,3.63,10.46,3.69,15.93,2.49.45-.1,1.02.06,1.49,0-7,6.07-15.7,8.85-24.89,5.97-5.15-1.61-11.43-8.28-12.94-13.44,1.93-1.1,7.39,6.92,13.19,7.97,1.69.3,4.52-.22,6.47,0-.74-2.18.74-2.83.75-2.99Z"/>
      <path class="cls-54" d="M152.84,212.7c.09,4.22-1.1,8.26-2.99,11.95-.16.32-.32.69-.5,1-6.07,3.92-3.84-2.32-9.46-6.97,1.14-3.08.66-6.35,1.49-9.46,3.33,3.87,6.74,3.65,11.45,3.48Z"/>
      <path class="cls-29" d="M149.35,225.65c-1.34,2.3-3.01,3.76-4.98,5.48-.48.06-1.04-.1-1.49,0-1.08-2.2-7.96-4.14-6.97-7.22.99-.85,3.78-4.67,3.98-5.23,5.62,4.65,3.39,10.89,9.46,6.97Z"/>
      <path class="cls-35" d="M116,202.75c5.22,6.69,14.3,9.68,21.91,5.48.13-.07.71.15,2.49-1.49.08.1-.34.93,1,2.49-.83,3.11-.35,6.37-1.49,9.46-.21.56-2.99,4.38-3.98,5.23-.99,3.08,5.89,5.02,6.97,7.22-5.48,1.2-11.48,1.14-15.93-2.49.02-.33-1.02-5.31-1.24-5.48-6.37,2.35-13.08-.11-13.19-7.22-9.01-5.03-3.25-11.37,1.74-17.18.47,1.49.74,2.69,1.74,3.98Z"/>
      <path class="cls-54" d="M136.41,205.24l1.49,2.99c-7.61,4.2-16.68,1.22-21.91-5.48.24-1.15-.36-1.48-.5-1.99,8.69-1.56,19.44,4.19,20.91,4.48Z"/>
      <path class="cls-3" d="M138.9,204.24c-.36.83-2.28,1.04-2.49,1-1.47-.29-12.21-6.04-20.91-4.48-.2-.75-.28-2.36-.5-2.99,1.34-.57,2.7-1.32,3.98-1.99,9.52-.96,13.96,1.49,19.91,8.46Z"/>
      <path class="cls-10" d="M138.9,192.79c-8.41-.57-12.22-1.05-19.91,2.99-1.29.68-2.64,1.43-3.98,1.99-.02-.05-.68.17-.5-1,7.65-6.06,15.17-7.4,24.39-3.98Z"/>
      <path class="cls-56" d="M138.9,192.79c.78.29,2.57.76,2.99,1,6.17,3.45,10.81,12.09,10.95,18.92-4.71.17-8.12.39-11.45-3.48-1.34-1.56-.91-2.38-1-2.49-.87-1.09-1.28-2.24-1.49-2.49-5.95-6.97-10.39-9.42-19.91-8.46,7.69-4.04,11.51-3.56,19.91-2.99Z"/>
      <path class="cls-54" d="M140.39,206.73c-1.77,1.64-2.36,1.42-2.49,1.49l-1.49-2.99c.21.04,2.12-.16,2.49-1,.21.25.62,1.39,1.49,2.49Z"/>
    </g>
  </g>
  <g>
    <path class="cls-46" d="M170.26,177.36c-2.07-4.19-11.27-3.51-10.95,1.74.26,4.38,6.19,3.45,6.72,3.73.51.27-.79,1.66-.75,1.74,1.3,2.73,7.03-3.08,4.98-7.22.89,1.74,1.21,1.73,1,3.98-.23,2.46-.79,3.6-2.99,4.98-1.21.76-8.28,2.33-10.7,3.48-1.19-.42-1.36-4.37-1.24-5.48.04-.38,2.28-6.9,2.49-7.22,2.77-4.36,8.92-4.69,11.45.25Z"/>
    <g>
      <path class="cls-27" d="M170.26,177.36c2.05,4.14-3.68,9.95-4.98,7.22-.04-.09,1.25-1.47.75-1.74-.53-.28-6.46.64-6.72-3.73-.32-5.25,8.88-5.93,10.95-1.74Z"/>
      <path class="cls-56" d="M164.54,175.86c2.63-.47,3.57,2.31,3.24,2.74-1.83,2.36-7.85-1.9-3.24-2.74Z"/>
    </g>
  </g>
  <g>
    <path class="cls-9" d="M199.64,292.86c-1.07,1.4-4.04,4.07-5.48,4.98-.55.35-3.3,1.92-3.48,1.99-1.49.59-2.93.73-4.48,1-.28.05-.48.39-2.49.5-1.39-.79-3.68-1.4-3.98-3.48,4.43.42,8.04-.36,11.95-2.49,1.73-.94,2.22-1.79,3.48-2.99,1.61-1.53,1.71-1.4,2.99-3.48.69-1.13,1.01-1.75,1.49-2.99,1.48-3.81,2.39-7.21,1.99-11.45-1.42-15.31-21.55-23.51-34.35-8.96-1.91,2.17-1.72,1.9-2.99,4.48-.02.03-.21-.2-.5.5-1.83.92-2.31-.74-3.48-1.99,2.96-5.79,8.36-11.48,14.94-12.94,22.45-5.01,38.36,19.13,24.39,37.34Z"/>
    <path class="cls-5" d="M163.79,270.45c-6.83,16.33,6.19,26.47,15.93,27.38.3,2.08,2.59,2.69,3.98,3.48-8.93.5-19.67-3.91-24.39-11.95-4.33-7.36-2.65-13.79,1-20.91,1.18,1.25,1.66,2.91,3.48,1.99Z"/>
    <g>
      <path class="cls-38" d="M177.73,277.92c.47.1,1.02-.09,1.49,0,2.56.5,5.59,1.67,8.46,1.49,4.53,3.29,2.87,11.72,7.47,12.94-1.26,1.2-1.75,2.04-3.48,2.99-3.54-3.74-9.21.12-11.7-7.47-9.74,3.51-16.39-2.59-15.68-12.45,3.91-.45,7.43,2.28,11.2,2.99,1.49.28,1.98-.55,2.24-.5Z"/>
      <path class="cls-54" d="M201.63,274.44c.39,4.24-.51,7.64-1.99,11.45-1.24-2.17.56-2.11.5-2.24-.13-.31-1.41.37-3.98-4.98-2.72-2.89-3.45-1.64-3.98-1.74-.05-2.6-10.46-3.87-14.94-3.98.92-1.49-5.29-3.32-4.98-1.24.07.49,1.17.58,1.49,1.24.41.84.41,1.5-.5,1.99-2.45-2.01-4.07-4.67-6.72-6.47-.89-.22-.76.92-1.24,1.49-.24.28-1.11.74-1,0,1.27-2.58,1.08-2.31,2.99-4.48,9.72-3.23,18.11,2.57,21.16,3.48,1.06.32,3.07-1.5,4.48,1.99,4.66-.86,6.16-.55,8.71,3.48Z"/>
      <path class="cls-4" d="M201.63,274.44c-2.55-4.04-4.05-4.34-8.71-3.48-1.41-3.49-3.42-1.67-4.48-1.99-3.05-.91-11.43-6.71-21.16-3.48,12.8-14.55,32.93-6.35,34.35,8.96Z"/>
      <path class="cls-49" d="M165.29,269.96c-.8,1.99-.85,3.41-1,5.48-.71,9.86,5.94,15.96,15.68,12.45,2.49,7.59,8.16,3.73,11.7,7.47-3.91,2.13-7.51,2.91-11.95,2.49-9.74-.92-22.76-11.05-15.93-27.38.29-.69.48-.47.5-.5-.12.74.75.28,1,0Z"/>
      <path class="cls-29" d="M192.17,276.93c.53.1,1.27-1.14,3.98,1.74,2.57,5.35,3.85,4.67,3.98,4.98.06.13-1.73.07-.5,2.24-.48,1.24-.8,1.86-1.49,2.99-4.71-1.58-3.53-13.26-10.45-9.46-2.87.17-5.9-1-8.46-1.49,1.51.74,3.26-2.41,4.23-2.49,2.01-.15.95,1.49,1.49,1.49,1.16,0,2.35-.92,7.22,0Z"/>
      <path class="cls-45" d="M198.14,288.87c-1.28,2.08-1.38,1.95-2.99,3.48-4.59-1.22-2.93-9.65-7.47-12.94,6.93-3.8,5.75,7.88,10.45,9.46Z"/>
      <path class="cls-25" d="M177.23,272.94c4.47.11,14.88,1.38,14.94,3.98-4.87-.92-6.06,0-7.22,0-.54,0,.52-1.65-1.49-1.49-.97.07-2.73,3.23-4.23,2.49-.47-.09-1.03.1-1.49,0-1.61-1.1-2.92-1.7-4.48-2.99.91-.49.91-1.15.5-1.99,1.95-.74,3.08,0,3.48,0Z"/>
      <path class="cls-35" d="M173.25,274.93c1.56,1.28,2.87,1.89,4.48,2.99-.26-.05-.75.78-2.24.5-3.77-.71-7.3-3.44-11.2-2.99.15-2.06.19-3.49,1-5.48.49-.57.36-1.71,1.24-1.49,2.66,1.8,4.27,4.46,6.72,6.47Z"/>
      <path class="cls-54" d="M177.23,272.94c-.4,0-1.53-.74-3.48,0-.32-.66-1.42-.75-1.49-1.24-.31-2.08,5.9-.25,4.98,1.24Z"/>
    </g>
  </g>
</svg>