<?xml version="1.0" encoding="UTF-8"?>
<svg id="Layer_1" data-name="Layer 1" xmlns="http://www.w3.org/2000/svg" viewBox="0 0 194.74 148.69">
  <defs>
    <style>
      .cls-1 {
        stroke-width: .25px;
      }

      .cls-1, .cls-2, .cls-3, .cls-4, .cls-5 {
        fill: #c290c1;
      }

      .cls-1, .cls-2, .cls-3, .cls-5 {
        stroke: #2c1048;
        stroke-miterlimit: 10;
      }

      .cls-2 {
        stroke-width: .5px;
      }

      .cls-6 {
        fill: #f2f2f3;
      }

      .cls-6, .cls-7, .cls-8, .cls-9, .cls-10, .cls-11, .cls-12, .cls-4, .cls-13 {
        stroke-width: 0px;
      }

      .cls-7 {
        fill: #4d2b7d;
      }

      .cls-8 {
        fill: #81458a;
      }

      .cls-9 {
        fill: #a35ca5;
      }

      .cls-10 {
        fill: #231f20;
      }

      .cls-11 {
        fill: #d2add2;
      }

      .cls-12 {
        fill: #d2c7d6;
      }

      .cls-13 {
        fill: #72af59;
      }

      .cls-5 {
        stroke-width: .75px;
      }
    </style>
  </defs>
  <g>
    <path class="cls-9" d="M82.53,41.95c-3.99-1.27-5.99-1.9-7.43-3.21-2.14-1.93-3.5-5.62-2.31-9.14,1.2-3.56,4.74-6.17,8.46-6.18,5.92-.01,10.35,6.57,9.23,9.63-.72,1.97-3.71,2.37-3.59,2.72.2.58,8.69.33,10.51-3.71,2.12-4.68-6.19-11.25-6.67-11.61-8.04-6.22-21.53-7.62-26.4-2.22-1.51,1.67-2.2,5.48-3.59,13.09-1.18,6.47-1.02,8.58-2.82,9.63-2.98,1.74-8.57-.99-11.54-4.45-3.63-4.22-4.36-10.7-1.54-15.31,2.39-3.92,6.32-2.56,8.72-6.18C57.4,9.24,52.16-.08,51.82,0c-.3.07,3.52,7.17.21,11.81-2.62,3.66-7.36,1.33-12.56,5.43-2.2,1.74-9,7.12-9.49,14.82-.27,4.23,1.18,12.31,3.59,18.28.31.77,1.04,2.5.26,3.95-1.09,2-4.76,2.89-7.43,1.98-3.77-1.29-5.03-5.96-6.41-11.12-.7-2.61-1.63-6.26-.77-10.87.52-2.78,1.47-4.72,2.31-6.42,2.61-5.32,5.09-6.35,7.18-9.63,4.65-7.32,2.07-16.99,1.15-17.06-.73-.05.24,6.05-3.72,12.36-4.87,7.77-11.74,5.84-16.41,13.83-3.84,6.58-4.16,12.64-4.36,16.3-.19,3.59-.39,8.39,2.05,13.83.52,1.17,1.8,3.77,4.36,6.67,8.14,9.23,16.85,7.38,25.12,14.33,8.24,6.92,12.73,19.75,8.2,26.43-2.23,3.29-6.72,5.21-10.51,4.69-6.48-.88-10.76-8.88-11.02-15.07-.23-5.38,2.57-9.04,1.28-9.88-1.24-.81-5.08,1.78-7.43,4.94-4.14,5.55-4.02,13.26-1.79,19.02,3.19,8.25,10.49,11.96,12.82,13.09,6.38,3.12,17.05,5.32,24.61.49,8.49-5.42,7.24-15.98,13.59-16.8,3.29-.42,6.85,2,8.2,4.69,1.73,3.44-.13,7.39-1.54,10.37-1.85,3.91-3.26,4.12-4.61,6.92-2.22,4.57-1.8,10.98,1.03,15.07,5.48,7.92,20.4,7.72,29.22,2.47,6.78-4.04,9.81-10.97,11.28-14.33,1.49-3.4,2.36-6.91,1.79-7.16-.68-.3-2.54,4.61-7.69,8.89-2.33,1.94-7.39,6.15-12.3,4.69-3.51-1.04-5.16-4.44-5.64-5.43-2.51-5.17-.99-12.09,3.59-16.06,4.05-3.51,9.08-3.47,11.02-3.46,7.39.06,12.33,4.38,14.1,5.93,1.93,1.68,7.25,6.34,7.18,11.61-.02,1.22-.33,2.78.51,4.69.78,1.78,1.78,2.1,2.56,4.2.63,1.71.22,2.17.77,3.46,0,0,.92,2.14,4.1,3.71,5.02,2.47,19.98-.11,25.12-10.62,2.79-5.7,3.01-14.37-1.54-17.29-3.7-2.37-9.87-.51-10,.74-.11,1.01,3.79,1.11,4.87,3.71,1.06,2.55-.9,6.74-4.36,8.15-3.2,1.3-6.98-.08-8.97-2.22-3.1-3.34-.18-6.69-2.82-12.6-2.48-5.55-6.81-6.54-6.15-8.89.87-3.1,9.05-3.57,12.82-3.46,7.3.22,12.56,3.04,15.12,4.45,3.88,2.13,7.16,3.94,9.49,7.9,3.01,5.13,2.33,10.29,2.05,11.86-.75,4.27-2.97,7.26-4.36,9.14-2.9,3.92-5.43,5.18-5.13,5.68.58.96,11.29-1.13,18.46-8.89,6.28-6.79,8.82-16.82,6.15-25.69-.29-.96-3.38-10.72-12.56-15.81-6.61-3.66-12.48-2.74-17.94-8.65-2.39-2.58-3.08-4.73-3.33-5.68-1-3.85.39-6.96,1.79-10.62,5.21-13.6,2.83-14.81,6.15-17.78,5.21-4.67,15.81-5.97,20-.99,2.45,2.92,2.81,8.11,0,11.61-3.35,4.17-10.34,4.85-12.56,2.47-2.7-2.89,2.01-9.89,1.03-10.37-1.09-.54-9.17,6.92-6.92,13.09,1.67,4.57,8.01,5.76,11.54,6.42,8.22,1.54,21.86.31,25.64-7.9,2.62-5.71-.7-12.18-3.33-17.29-1.26-2.45-4.1-7.81-10.25-12.1-7.55-5.27-15.37-5.62-22.05-5.93-7.33-.33-13.11-.6-18.46,2.72-7.48,4.64-4.36,10.24-10.77,14.82-8.56,6.11-22.94,2.41-43.84-2.96-1.19-.31-2.33-.67-2.56-.74Z"/>
    <path class="cls-8" d="M151.16,21.31c-14.2-8.71-28.6-8.22-34.39-7.95-13.79.65-23.34,5.43-31.68,9.62-9.01,4.51-26.86,13.46-34,31.25-3.38,8.41-2.22,13.46-1.93,14.61,1.27,5.01,4.69,9.28,16.23,16.83,13.56,8.88,22.5,14.73,37.09,18.12,11.53,2.68,22.96,5.34,36.32.92,14.89-4.92,27.33-17.03,32.07-32.17,1.16-3.71,5.58-18.69-2.51-33.84-5.32-9.96-13.42-15.07-17.19-17.38Z"/>
    <g>
      <path class="cls-7" d="M126.07,33.08c-8.13,2.39-11.67,9.73-11.96,10.37-.44.94-3.66,8.21-.4,15.15,4.35,9.24,18.4,14.06,28.31,7.97,7.02-4.31,11.43-13.77,8.37-22.33-3.59-10.03-15.62-13.71-24.32-11.16Z"/>
      <path class="cls-12" d="M127.8,35.39c-1.29.35-5.11,1.44-8.31,5.03-1.23,1.38-4.22,5.22-4.15,10.82.02,1.3.15,6.18,3.93,10.17,3.53,3.71,7.95,4.24,9.95,4.48,1.81.22,7.73.93,12.9-3.17,3.88-3.07,6.44-8.13,6.01-13.66-.04-.55-.78-8.34-7.65-12.35-5.55-3.24-11.18-1.72-12.68-1.31Z"/>
      <path class="cls-13" d="M126.76,37.18c-2.52.99-4.1,2.46-5.23,3.53-1.45,1.38-3.2,3.03-4.17,5.79-1.22,3.49-.44,6.57-.14,7.7,1.41,5.27,5.44,7.95,6.14,8.4,6.07,3.91,12.63,1.59,13.49,1.27,1.2-.45,6.02-2.24,8.33-7.42,2.46-5.51.2-10.66-.49-12.08-.32-.65-3.41-6.68-10.1-7.98-3.85-.75-6.98.44-7.84.78Z"/>
      <path class="cls-10" d="M119.55,47.07c.44-2.86,4.82-9.46,11.09-9.75.53-.02,3.89-.13,6.5,1.98,1.52,1.23,1.36,2.05,3.53,4.24,2.35,2.37,3.35,2.21,3.88,3.6.5,1.29.09,2.57-1.77,6.36-2.48,5.05-3.73,7.58-4.66,8.33-3.53,2.85-9.21,3.18-13.21.99-.46-.25-2.43-2.74-6.36-7.7-.48-.6-1.18-1.51-1.06-2.61.1-.95.73-1.3,1.34-2.61.59-1.27.62-2.28.71-2.82Z"/>
      <path class="cls-6" d="M127.3,39.81c-.34.1-1.76.55-3.14,1.78-1.3,1.15-1.83,2.34-2.72,4.31-.64,1.43-.96,2.15-.7,2.48.61.79,3.75.17,5.57-1.78,1.42-1.52.9-2.65,2.67-4.31.43-.4,1.46-1.35,3-1.69,1.84-.4,3.34.29,3.37.19.03-.11-1.63-.83-3.84-1.12-1.29-.17-2.6-.34-4.21.14Z"/>
      <path class="cls-6" d="M123.67,53.26c-.31-.27-.91-.27-1.16,0-.26.28-.1.82,0,1.16.89,3.01.34,2.87.99,4.01.25.44,1.17,2.03,2.93,2.69,1.26.47,1.73,0,4.46-.21,3.76-.29,4.74.44,5.79-.5.44-.4.45-.69,1.24-3.59.96-3.55,1.27-4.29.95-4.5-.43-.29-1.4.81-3.88,2.69-2.74,2.07-4.14,3.11-5.7,3.31-2.36.29-5.16-.86-5.58-2.44-.28-1.04.53-2.11-.04-2.6Z"/>
      <path class="cls-6" d="M134.25,49.46c-.28.02-.27.02-.36.02-1.16.07-1.97.04-2.78.02-1.09-.03-2.1-.04-3.35.04-.83.06-1.26.12-1.57.45-.4.43-.54,1.19-.29,1.69.54,1.07,2.84.9,4.96.74,2.94-.22,2.84-.73,6.74-1.24,1.32-.17,2.26-.23,2.31-.58.07-.4-1.1-1.1-2.23-1.28-.41-.07-1.42,0-3.43.12Z"/>
    </g>
  </g>
  <path class="cls-11" d="M53.5,5.74c.55.07,1.44,3.28.13,5.82-1.39,2.69-4.2,2.58-8.4,4.91-1.08.6-4.97,2.8-7.76,6.72-.43.61-6.1,8.79-3.23,15.38,1.15,2.64,3.06,3.63,3.88,7.5.66,3.13-.19,4.38-.52,4.78-.87,1.06-2.4,1.53-2.84,1.42-.03,0-.54-.14-.54-.14,0,0-1.1-3.15-1.23-3.51-1.32-3.76-2.32-6.64-2.88-9.79-.52-2.94-1.06-6.04-.07-9.83.91-3.51,2.68-5.85,3.7-7.18,1-1.3,3.16-4.05,6.84-5.98,2.71-1.42,4.06-1.26,7.36-3.36,2.02-1.29,2.84-2.2,3.29-2.77,1.68-2.12,1.84-4.03,2.28-3.97Z"/>
  <path class="cls-11" d="M29.29,5.91c.81.3.59,4.22-.78,7.85-2.14,5.62-5.76,7.06-12.21,13.86-4.62,4.87-6.93,7.31-8.1,10.52-2,5.49-1.94,13.97,2.74,19.37,6.15,7.1,15.52,3.39,19.83,11,1.22,2.15,3.57,7.93,3.57,7.93,4.65,1.26-9.34-2.47-13.77-4.36-.69-.29-1.33-.58-1.71-.76-3.93-1.85-12.26-6.57-15.81-15.63-3.89-9.92-.99-22.33,5.67-29.12,4.33-4.42,7.83-3.97,13.34-10.55,4.44-5.3,6.26-10.47,7.24-10.11Z"/>
  <path class="cls-11" d="M99.17,111.69h0s-5.19-.84-8.71-.28c-4.15.67-8.94,3.75-10.92,8.62-1.8,4.45-.51,8.52.46,11.56.93,2.94,2.06,6.48,5.32,8.16,2.45,1.27,4.83.83,8.35.18,2.76-.51,7.86-1.45,11.93-5.6,3.39-3.46,4.68-7.75,4.31-7.98-.3-.19-1.6,2.38-4.95,4.86-1.57,1.16-3.54,2.59-6.42,3.03-1.17.18-4.6.7-7.61-1.47-2.61-1.88-3.34-4.64-3.67-5.87-.27-1-1.08-4.08.37-7.25,1.27-2.78,3.61-4.15,5.6-5.32,0,0,.78-.46,5.96-2.66Z"/>
  <path class="cls-11" d="M124.23,107.13c-1.38.67-1.85,2.17-1.95,2.49-.3.94-.55,2.88,3.2,8.71,3.22,5,4.55,5.33,5.24,8.26.69,2.91-.37,3.63.62,5.6,1.48,2.93,5.29,4.22,8.17,4.26,4.68.08,7.68-3.11,8.35-3.82.46-.49,2.71-2.96,3.2-6.84.18-1.42.64-5.07-1.33-6.57-1.93-1.47-5.93-.69-5.93-.69h0s.43.67.51.78c.6.88,1.83.81,3.11,1.69.22.15.94.64,1.25,1.23,1,1.91-1.34,6.69-5.25,7.74-3.6.96-7.41-1.53-8.71-4.35-1.32-2.86.96-3.84-.18-7.82-1.38-4.83-6.13-8.26-7.02-8.62-.07-.03-.26-.09-.44-.27-.61-.58-.2-1.41-.62-1.87-.45-.48-1.56-.23-2.22.09Z"/>
  <path class="cls-11" d="M23.26,85c.38.46-3.45,2.8-5.35,7.74-2.51,6.54.15,13.01.42,13.66,4.05,9.46,14.94,11.68,17.74,12.25,1.92.39,14.17,2.89,19.43-3.38,2.99-3.56,2.82-8.89,6.33-9.71,1.51-.35,4.81-.13,4.81-.13,0,0-1.17,4.82-2.27,7.59-2.3,5.76-6.95,9.09-8.31,10-4.35,2.91-8.51,3.44-11.4,3.8-6.85.87-12.33-.7-14.78-1.55-3.67-1.27-11.4-3.95-15.91-11.83-.55-.95-6.31-11.39-1.41-20.27,3.35-6.08,10.22-8.74,10.7-8.16Z"/>
  <path class="cls-4" d="M10.83,64.03c-.2.14-.4.29-.61.43"/>
  <path class="cls-2" d="M28.85,6.12c-.14-.1-.47.06-.64.3-.11.16-.23.46-.08.65.08.1.23.17.36.14.38-.08.57-.93.36-1.09Z"/>
  <path class="cls-2" d="M29.27,6.23c.2-.08.42.09.44.11.2.16.21.42.22.56,0,.14.01.26-.06.36-.14.18-.47.23-.67.08-.19-.15-.18-.41-.17-.56,0-.12.02-.46.25-.55Z"/>
  <path class="cls-3" d="M28.26,7.06c-.24-.06-.44.04-.59.11-.1.05-.74.36-.74.91,0,.05,0,.4.28.56.37.22.91-.11,1-.17.27-.17.66-.56.53-.97-.06-.19-.23-.39-.49-.45Z"/>
  <path class="cls-3" d="M28.96,7.62c-.12.04-.2.12-.27.2-.06.07-.23.25-.24.52,0,.08-.01.25.1.4.23.31.74.18.79.17.11-.03.28-.07.39-.22.17-.23.1-.58-.06-.79-.16-.21-.46-.36-.71-.28Z"/>
  <path class="cls-3" d="M27.09,8.58c-.24-.03-.43.06-.48.09-.31.16-.61.58-.48,1,.08.25.29.46.55.53.4.1.8-.14.95-.46.14-.3.04-.61.01-.71-.05-.16-.12-.24-.14-.26-.15-.16-.34-.18-.41-.19Z"/>
  <path class="cls-3" d="M28.29,9.25c-.1.04-.28.12-.41.31-.22.31-.13.67-.12.69.08.3.32.46.4.51.25.17.72.31,1.07.06.29-.2.34-.54.35-.61.02-.12.03-.37-.12-.62-.02-.03-.24-.38-.65-.43-.24-.03-.43.05-.52.09Z"/>
  <path class="cls-3" d="M26.18,10.35c-.34-.11-.63.04-.78.11-.06.03-.85.43-.79,1.15.03.34.24.7.59.86.5.23,1.04-.08,1.3-.38.06-.07.41-.46.31-.98,0-.03-.13-.6-.63-.76Z"/>
  <path class="cls-3" d="M27.86,11.26c-.37.04-.59.27-.78.46-.2.2-.49.49-.48.94,0,.47.33.77.38.8.5.44,1.17.21,1.21.2.6-.21.78-.79.8-.88.04-.13.19-.64-.15-1.09-.23-.3-.61-.47-.98-.43Z"/>
  <path class="cls-3" d="M25.28,13.18c-.28-.27-.68-.24-.89-.22-.09,0-.99.08-1.46.85-.12.2-.42.68-.21,1.17.24.54.91.62.95.63.84.09,1.42-.77,1.54-.94.12-.18.45-.67.29-1.15-.07-.19-.18-.3-.21-.33Z"/>
  <path class="cls-3" d="M25.93,14.45c-.3.04-.52.25-.62.35-.13.13-.21.28-.36.57-.24.46-.36.69-.35.98,0,.09.02.31.15.52.26.45.74.52.86.54.44.07.78-.13.87-.19.45-.29.6-.76.63-.87.02-.09.19-.73-.17-1.3-.03-.05-.44-.66-1.01-.6Z"/>
  <path class="cls-3" d="M22.52,15.77c-.3-.15-.64.03-.99.24-.43.25-1.04.59-1.08,1.25-.03.58.4,1.15.9,1.31.67.21,1.34-.34,1.57-1.01.22-.66.05-1.55-.41-1.79Z"/>
  <path class="cls-3" d="M23.85,17.55c-.53-.08-.99.5-1.08.6-.13.16-.56.68-.4,1.32.14.57.67.9,1.13.96.42.06.95-.08,1.22-.48.54-.79-.11-2.28-.88-2.4Z"/>
  <path class="cls-3" d="M19.46,21.39c.18-.01.46-.06.71-.27.48-.39.83-1.3.47-1.91-.34-.57-1.14-.64-1.64-.43-.64.27-1.18,1.18-.84,1.88.22.45.75.71,1.29.73Z"/>
  <path class="cls-3" d="M21.48,22.88c.17-.02.45-.08.71-.27.49-.37.88-1.2.56-1.73-.3-.49-1.09-.51-1.58-.31-.64.27-1.22,1.11-.91,1.72.19.39.7.6,1.23.59Z"/>
  <path class="cls-3" d="M17.64,21.13c-.38-.17-.73-.07-.88-.03-.16.04-.73.21-.91.74-.15.46.1.86.14.92.33.51,1.1.79,1.7.46.37-.2.67-.64.63-1.14-.04-.43-.31-.8-.68-.96Z"/>
  <path class="cls-3" d="M20.11,23.25c-.16-.36-.66-.5-1.01-.48-.62.04-.94.55-.95.58-.05.08-.29.49-.1.94.14.33.48.59.85.59.34,0,.56-.21.81-.45.15-.14.35-.34.42-.66.03-.12.07-.32-.01-.52Z"/>
  <path class="cls-3" d="M14.39,22.62c-.62.14-.82.76-.83.8-.03.09-.23.8.16,1.31.4.53,1.13.47,1.53.3.53-.22,1.09-.91.82-1.59-.25-.64-1.1-.95-1.67-.82Z"/>
  <path class="cls-3" d="M17,24.44c-.51,0-.84.5-1.04.8-.12.19-.61.93-.27,1.35.27.33.86.26.96.25.62-.07,1.4-.57,1.38-1.28-.01-.55-.5-1.12-1.04-1.13Z"/>
  <path class="cls-3" d="M12.53,24.18c-.38-.2-.76-.14-.93-.1-.61.14-1.03.68-1.15,1.22-.02.1-.2.87.29,1.34.48.46,1.28.32,1.75.03.09-.06.8-.5.77-1.31-.02-.48-.29-.96-.74-1.18Z"/>
  <path class="cls-3" d="M13.77,26.51c-.22.05-.55.13-.79.43-.37.45-.24,1.06-.19,1.24.02.06.27.91,1.06,1.08.56.12,1-.17,1.1-.24.49-.34.72-.97.6-1.53-.02-.11-.12-.54-.52-.82-.48-.35-1.05-.21-1.27-.15Z"/>
  <path class="cls-3" d="M10.59,27.06c-.34-.49-.99-.63-1.5-.53-.73.15-1.32.86-1.27,1.58,0,.06.06.69.57.99.51.3,1.08.05,1.33-.06.14-.06,1.05-.49,1.08-1.29.01-.35-.15-.61-.21-.7Z"/>
  <path class="cls-3" d="M11.66,28.37c-.61.04-1.01.66-1.12,1.16-.02.08-.2.98.46,1.46.49.35,1.18.28,1.6-.08.46-.39.45-.98.44-1.12-.02-.43-.23-.74-.34-.87-.07-.09-.48-.59-1.06-.55Z"/>
  <path class="cls-3" d="M7.65,29.51c-.22-.04-.51,0-.74.15-.1.06-.11.1-.42.38-.31.28-.31.26-.38.34-.19.21-.41.62-.3,1.03.17.6.93.75.99.76.64.12,1.13-.29,1.25-.38.15-.12.53-.44.57-.95.05-.6-.41-1.24-.97-1.33Z"/>
  <path class="cls-3" d="M9.87,31.03c-.76.04-1.18.65-1.2.68-.24.35-.43.97-.13,1.46.36.57,1.18.57,1.67.42.62-.19,1.36-.81,1.22-1.54-.12-.67-.92-1.05-1.56-1.01Z"/>
  <path class="cls-3" d="M5.9,32.67c-.43-.16-.86.08-1.01.17-.81.45-.86,1.43-.87,1.48,0,.22-.03.75.32,1.01.51.39,1.36-.11,1.5-.19.2-.12.62-.38.76-.89.16-.6-.12-1.38-.7-1.58Z"/>
  <path class="cls-3" d="M7.8,33.77c-.53.14-.74.75-.87,1.1-.13.36-.29.83-.04,1.25.26.43.85.58,1.29.49.76-.16,1.36-1.08,1.1-1.88-.2-.62-.9-1.1-1.48-.95Z"/>
  <path class="cls-3" d="M4.01,36.03c-.09,0-.33,0-.59.19-.55.38-1.06,1.46-.69,2.26.29.64,1.02.81,1.55.55.66-.33,1.11-1.39.82-2.17-.19-.52-.67-.82-1.09-.82Z"/>
  <path class="cls-3" d="M7.61,37.36c-.24-.21-.58-.31-.89-.25-.43.07-.66.43-.93.84-.35.55-.64.98-.49,1.44.2.6,1.04.82,1.63.78.17-.01.77-.06,1.1-.51.45-.61.05-1.48-.13-1.88-.08-.17-.16-.31-.3-.42Z"/>
  <path class="cls-3" d="M3.59,39.58c-.17-.07-.61-.22-1.05-.04-.77.3-1.1,1.4-.75,2.12.04.08.3.59.84.69.48.09.86-.2,1.04-.33.15-.11.74-.56.69-1.29-.05-.74-.73-1.12-.78-1.15Z"/>
  <path class="cls-3" d="M5.42,40.3c-.49.23-.65.78-.68.9-.03.11-.2.77.24,1.34.02.03.5.63,1.26.58.11,0,.52-.04.86-.36.42-.4.5-1.05.32-1.54-.29-.79-1.31-1.25-1.99-.93Z"/>
  <path class="cls-3" d="M2.61,43.01c-.35-.1-.83-.24-1.22,0-.6.37-.78,1.55-.18,2.17.34.35.9.51,1.4.33.57-.2.78-.74.86-.96.09-.23.24-.62.06-.98-.18-.36-.58-.47-.91-.57Z"/>
  <path class="cls-3" d="M5.03,43.3c-.6.2-.79.87-.83,1.01-.05.17-.22.77.15,1.27.32.44.89.59,1.38.48.49-.11.88-.48,1.02-.93.02-.08.15-.48-.03-.93-.25-.63-1.03-1.14-1.7-.91Z"/>
  <path class="cls-3" d="M3.54,46.71c-.24-.5-.76-.68-.9-.73-.05-.02-1.17-.38-1.81.38-.47.55-.42,1.37-.02,1.92.44.6,1.28.85,1.96.53.82-.38,1.1-1.43.77-2.11Z"/>
  <path class="cls-3" d="M4.2,46.8c.31-.29.71-.28,1.13-.28.37,0,.96.01,1.45.45.11.1.5.45.53,1,.03.59-.37,1.01-.55,1.19-.17.17-.42.43-.83.51-.79.15-1.43-.55-1.56-.68-.15-.16-.52-.57-.53-1.17,0-.15-.02-.68.36-1.02Z"/>
  <path class="cls-3" d="M2.77,50.04c-.13-.09-.45-.31-.83-.23-.58.11-.8.81-.83.92-.16.53-.02,1.17.43,1.58.47.43,1.3.62,1.73.23.43-.39.23-1.17.15-1.47-.06-.22-.19-.71-.64-1.02Z"/>
  <path class="cls-3" d="M4.4,50.89c.23-.6.86-.79.92-.81.76-.22,1.53.27,1.9.83.32.48.56,1.36.09,1.9-.52.59-1.57.42-2.18-.02-.53-.38-1.01-1.18-.73-1.9Z"/>
  <path class="cls-3" d="M8.19,54.12c-.49-.36-1.14-.35-1.62-.09-.37.2-.83.65-.79,1.24.05.69.79,1.06,1.22,1.17.06.02,1.11.27,1.6-.41.42-.57.18-1.48-.41-1.92Z"/>
  <path class="cls-3" d="M4.59,54.3c-.44-.52-1.31-.79-1.79-.44-.34.25-.37.72-.39,1.06-.02.34-.07,1.24.6,1.66.43.27,1.03.27,1.45-.02.68-.48.66-1.63.13-2.26Z"/>
  <path class="cls-3" d="M9.94,56.95c-.72-.22-1.37.13-1.5.2-.17.09-.9.48-1.01,1.19-.13.86.76,1.75,1.68,1.97.74.17,1.78-.01,2.17-.75.49-.93-.31-2.29-1.33-2.6Z"/>
  <path class="cls-3" d="M6.04,58.07c-.32-.27-1.16-.95-1.68-.66-.41.23-.41.95-.4,1.3,0,.19.03,1.48,1.07,2.23.22.16.79.57,1.5.43.15-.03.67-.13.9-.52.45-.78-.58-2.11-1.39-2.78Z"/>
  <path class="cls-3" d="M11.88,59.73c.98-.08,1.69.46,2.13.79.5.38,1.4,1.05,1.31,1.94-.07.66-.64,1.06-.73,1.12-.96.65-2.33.14-3.07-.36-.67-.46-1.78-1.56-1.43-2.49.33-.87,1.69-.99,1.79-1Z"/>
  <path class="cls-3" d="M9.45,62.07c-.63-.24-1.29-.23-1.55-.21-.52.03-.97.06-1.18.36-.34.49.15,1.35.3,1.61.58,1.01,1.54,1.42,1.85,1.55.76.32,2.39.74,2.82.12.51-.73-.69-2.83-2.25-3.43Z"/>
  <path class="cls-3" d="M15.13,64.01c.01-.76.79-1.41,1.49-1.64.84-.27,1.58.08,2.7.64,1.2.59,2.88,1.43,2.79,2.49-.07.82-1.16,1.32-1.28,1.37-1.44.63-2.98-.33-3.92-.91-.92-.57-1.81-1.12-1.79-1.94Z"/>
  <path class="cls-3" d="M15.52,65.59c-.59-.05-1.05.06-1.97.27-1.23.29-2.33.54-2.43,1.06-.12.66,1.41,1.43,2.37,1.91,1.61.81,3.91,1.98,4.98,1,.58-.53.57-1.5.43-2.06-.4-1.55-2.33-2.1-3.37-2.19Z"/>
  <path class="cls-3" d="M23.37,64.89c.83-.49,1.73-.34,2.45-.22.43.07,1.5.26,2.35,1.07.06.06,0,0,.78.91.48.55.64.73.72,1.04,0,0,.13.46-.03.94-.4,1.22-2.48,1.49-2.64,1.51-1.36.16-2.37-.37-3.64-1.04-.82-.43-1.94-1.01-1.91-1.76,0-.09.03-.24.53-.91.66-.87,1-1.31,1.38-1.54Z"/>
  <path class="cls-3" d="M22.21,69.09c-.51.05-.66.3-2.04,1.04-.08.04-.26.14-.38.35,0,0-.1.19-.09.44.03.76,3.09,1.98,3.73,2.23,1.71.67,2.1.75,2.6.63.78-.19,1.67-.85,1.63-1.48-.04-.62-.94-.65-3.08-1.98-1.44-.89-1.7-1.29-2.39-1.22Z"/>
  <path class="cls-3" d="M22.17,85.02c-.11-.21-.62-.15-1.04-.09-.47.06-1.23.16-1.69.77-.19.26-.46.77-.28,1.01.24.32,1.14.03,1.63-.21.8-.4,1.54-1.17,1.38-1.47Z"/>
  <path class="cls-3" d="M22.27,85.6c-.69-.3-2.36,1.4-2.09,1.96.15.3.86.27,1.29.12.6-.2,1.2-.79,1.14-1.44,0-.07-.05-.52-.34-.64Z"/>
  <path class="cls-3" d="M19.2,87.13c-.23-.51-1.17-.49-1.29-.49-1.05.03-2.22.89-2.12,1.78.07.55.61,1.04,1.17,1.14,1.26.21,2.59-1.66,2.24-2.43Z"/>
  <path class="cls-3" d="M20.18,88.09c-.25-.16-.63.04-1.01.25-.74.39-1.91,1.36-1.63,2.12.21.57,1.18.9,1.87.64,1.21-.45,1.32-2.65.77-3.01Z"/>
  <path class="cls-3" d="M16.4,90.77s-.03-.07-.07-.12c-.07-.1-.46-.63-.98-.78-.78-.23-1.79.41-2.05,1.27-.1.34-.16.97.2,1.27.57.48,1.73-.27,1.95-.41.07-.04,1.1-.73.95-1.22Z"/>
  <path class="cls-3" d="M17.37,90.87c-.75-.08-1.52,1.16-1.54,2.22,0,.22-.02.98.46,1.27.51.3,1.25-.1,1.63-.49.63-.65.5-1.52.49-1.61-.09-.57-.5-1.33-1.05-1.39Z"/>
  <path class="cls-3" d="M13.94,94.02c-.03-.11-.2-.63-.63-.78-.69-.24-1.5.62-1.76.9-.46.49-1.39,1.74-.93,2.39.35.49,1.33.42,1.95.15,1.03-.45,1.66-1.72,1.37-2.66Z"/>
  <path class="cls-3" d="M15.76,94.41c-.46-.09-.86.17-1.05.29-.63.41-1.41,1.42-1.07,2.56.28.95,1.26,1.69,2.02,1.54,1.11-.22,1.66-2.28,1.07-3.49-.08-.16-.38-.78-.98-.9Z"/>
  <path class="cls-3" d="M13.71,98.73c-1.02.26-1.38,1.46-1.41,1.58-.06.21-.35,1.33.4,2.15.67.73,1.86.89,2.72.34.72-.46,1.04-1.3.96-2.04-.14-1.28-1.52-2.33-2.66-2.04Z"/>
  <path class="cls-3" d="M12.38,99c-.04-.06-.47-.74-1.09-.74-.05,0-.26,0-.53.18-.7.43-.87,1.34-.97,1.91-.15.83-.3,1.72.18,2.06.47.34,1.26-.07,1.35-.12,1.12-.6,1.65-2.32,1.06-3.3Z"/>
  <path class="cls-3" d="M10.93,103.08c-.36.13-.52.51-.6.69-.26.58-.15,1.25.16,1.73.31.48,1.02,1.09,1.69.85.67-.24.88-1.2.73-1.85-.22-.94-1.29-1.67-1.97-1.41Z"/>
  <path class="cls-3" d="M13.19,103.97c.22-.42.65-.58.93-.69.77-.29,1.79-.23,2.58.32.92.65,1.66,2.07,1.09,2.98-.51.81-1.8.83-2.58.6-.85-.25-1.32-.86-1.49-1.09-.15-.2-.96-1.3-.52-2.14Z"/>
  <path class="cls-3" d="M14.56,107.15c-.19.11-.17.35-.28,1.21-.15,1.23-.25,1.2-.2,1.49.16,1.03,1.31,1.63,1.45,1.69.97.48,2.61.59,3.3-.4.65-.93.04-2.21,0-2.3-.09-.19-.41-.84-1.09-1.13-.67-.29-.95.09-1.89-.16-.75-.2-1.02-.56-1.29-.4Z"/>
  <path class="cls-3" d="M13.63,108.72c-.19-.22-.5-.58-1.01-.64-.51-.07-1.05.19-1.33.56-.62.83.05,2.09.24,2.46.23.43.65,1.24,1.53,1.45.63.15,1.5,0,1.73-.48.13-.27-.04-.43-.44-1.57-.39-1.12-.37-1.37-.73-1.77Z"/>
  <path class="cls-3" d="M20.88,112.48c-.42-.21-1.3-.64-1.98-.2-.59.38-.72,1.2-.61,1.77.18.99,1.13,1.45,1.36,1.57,1.14.56,2.85.39,3.2-.41.37-.84-.86-2.18-1.98-2.72Z"/>
  <path class="cls-3" d="M17.2,114.38c-.67-.32-1.22-.28-1.36-.27-.5.04-1.44.28-1.63.89-.25.77.81,1.75,1.63,2.18,1.15.61,2.89.71,3.27,0,.4-.73-.7-2.22-1.91-2.79Z"/>
  <path class="cls-3" d="M25.17,115.13c-.14.06-.74.34-.95.95-.32.93.51,1.9.68,2.11,1.35,1.59,4.28,1.9,4.9.95.5-.77-.58-2.23-.75-2.45-.9-1.17-2.62-2.12-3.88-1.57Z"/>
  <path class="cls-3" d="M22.17,118.67c-1.22-.49-1.91-.83-2.18-.54-.35.37.25,1.55.75,2.25,1.36,1.91,4.29,3.52,5.86,2.45.53-.36,1.03-1.11.89-1.77-.21-.93-1.51-.86-5.31-2.38Z"/>
  <path class="cls-3" d="M32.26,117.37c-.84.34-1.64,1.34-1.49,2.23.16.98,1.4,1.45,2.15,1.73,1.88.72,4.63.76,4.96-.17.45-1.24-3.33-4.72-5.62-3.8Z"/>
  <path class="cls-3" d="M31.52,121.58c-.48.09-1.42.26-1.98,1.07-.42.61-.54,1.44-.33,2.07.71,2.06,5.48,2.9,6.61,1.32.63-.88.14-2.51-.74-3.47-1.3-1.4-3.19-1.06-3.55-.99Z"/>
  <path class="cls-3" d="M41.02,119.27c-.19.08-1.48.64-1.57,1.73-.06.73.45,1.28.5,1.32.39.4.87.5,1.32.58,2.28.38,3.41.57,3.97-.08.52-.61.41-1.65.08-2.31-.73-1.48-2.89-1.85-4.3-1.24Z"/>
  <path class="cls-3" d="M40.52,123.73c-.82-.1-1.45-.16-1.9.25-.57.51-.68,1.6-.25,2.23.72,1.05,2.79.62,3.8.41,1.32-.27,3.46-1.04,3.39-1.73-.05-.54-1.72-.74-5.04-1.16Z"/>
  <path class="cls-3" d="M49.61,119.11c-.39-.05-2.19-.28-2.81.91-.38.73-.18,1.74.41,2.31.92.88,2.44.41,3.22-.17.53-.39,1.35-1.28,1.07-2.07-.27-.79-1.46-.94-1.9-.99Z"/>
  <path class="cls-3" d="M50.97,123.29c-.41-.69-2.91-.76-3.47.64-.37.91.2,2.19.93,2.37,1.18.3,3.02-2.21,2.55-3.01Z"/>
  <path class="cls-3" d="M55.02,117.33c-.79-.35-1.67.18-2.08.75-.53.74-.54,1.88,0,2.32.76.62,2.72-.09,2.95-1.33.11-.62-.2-1.44-.87-1.74Z"/>
  <path class="cls-3" d="M56.23,120.23c-.63-.33-1.99.85-2.55,2.03-.28.59-.21.88-.17.98.23.71,1.42,1.11,2.14.81,1.29-.54,1.36-3.41.58-3.82Z"/>
  <path class="cls-3" d="M57.05,113.51c-1,.24-1.45,1.51-1.39,2.43,0,.11.1,1.37.93,1.74,1.04.46,2.9-.66,2.89-2.08,0-1.18-1.31-2.35-2.43-2.08Z"/>
  <path class="cls-3" d="M58.32,117.97c-.26.23-.92.79-.87,1.56.03.49.35,1.07.81,1.22,1.27.4,3.73-2.54,3.24-3.36-.33-.55-2.12-.33-3.18.58Z"/>
  <path class="cls-3" d="M57.45,112.06c.39.96,1.35,1.54,2.32,1.51,1.25-.04,2.33-1.08,2.37-2.32.03-.93-.53-1.79-1.33-2.2-.79-.41-1.79-.38-2.55.17-.86.63-1.22,1.81-.81,2.84Z"/>
  <path class="cls-3" d="M62.49,111.54c.3-.22,1.15-.85,1.91-.52.76.33.89,1.36.93,1.62.16,1.24-.49,2.84-1.74,3.18-.07.02-1.04.27-1.74-.35-.63-.55-.59-1.4-.58-1.74.06-1.31,1.07-2.09,1.22-2.2Z"/>
  <path class="cls-3" d="M61.83,105.55c-.63-.1-1.11.23-1.82.7-.69.46-1.46.99-1.41,1.64.05.57.7.98,1.14,1.14,1.45.53,3.61-.55,3.65-1.78.02-.74-.73-1.57-1.57-1.71Z"/>
  <path class="cls-3" d="M64.6,105.82c-.41.13-.58.58-.9,1.47-.37,1.01-.56,1.52-.3,1.98.37.64,1.49.89,2.28.47.92-.49,1.09-1.74.77-2.58-.31-.81-1.2-1.54-1.84-1.34Z"/>
  <path class="cls-3" d="M30.65,68.48c-.69-.11-1.71,1.05-1.65,2.09.03.57.42.99,1.18,1.84.58.65.88.76,1.03.81.52.16,1.28.11,1.52-.29.2-.34-.06-.72-.74-2.09-.96-1.94-.99-2.3-1.35-2.36Z"/>
  <path class="cls-3" d="M28.76,71.35c-.26,0-.31.57-.79,1.35-.59.97-1.07,1.02-1.06,1.38.03,1.01,3.87,2.33,4.77,1.23.42-.53.23-1.67-.34-2.16-.53-.45-1.08-.11-1.72-.64-.59-.49-.57-1.16-.86-1.15Z"/>
  <path class="cls-1" d="M53.32,5.76c-.19-.13-.53.07-.56.09-.25.16-.47.5-.36.85.09.33.42.58.65.53.42-.1.61-1.24.27-1.47Z"/>
  <path class="cls-1" d="M53.5,5.82c.12-.1.41.04.58.16.42.32.71,1.07.4,1.38-.22.22-.71.21-.93-.02-.17-.18,0-.33-.09-1.16-.02-.17-.04-.3.04-.36Z"/>
  <path class="cls-1" d="M53.03,7.42c-.21.01-.42.03-.63.04-.11.11-.26.3-.37.56-.11.26-.27.64-.08.92.12.17.34.28.55.26.43-.03.73-.6.75-1.05.02-.35-.13-.62-.21-.74Z"/>
  <path class="cls-1" d="M53.99,7.84c-.3-.09-.57.05-.59.06-.28.16-.36.46-.47.86-.07.29-.12.47-.03.68.07.16.22.32.39.38.46.16,1.21-.29,1.29-.92.05-.41-.17-.93-.59-1.06Z"/>
  <path class="cls-5" d="M52.17,9.61c-.16-.25-.67-.21-.96-.12-.52.17-.99.71-.87,1.25.05.25.24.56.52.61.66.12,1.59-1.28,1.31-1.74Z"/>
  <path class="cls-5" d="M52.84,9.67c-.87,0-1.69,1.37-1.25,2.18.21.39.69.63,1.13.58.84-.09,1.46-1.2,1.13-2-.16-.39-.57-.75-1.02-.75Z"/>
  <path class="cls-5" d="M50.34,11.9c-.04-.43-.89-.9-1.54-.64-.6.24-.94,1.05-.7,1.39.19.27.71.2.9.17.6-.08,1.37-.5,1.34-.93Z"/>
  <path class="cls-5" d="M51.85,12.97c-.2-.37-.98-.39-1.5-.14-.11.05-.64.31-.66.75-.02.46.56.89,1.05.88.76-.02,1.34-1.05,1.1-1.5Z"/>
  <path class="cls-5" d="M47.81,12.98c-.07-.29-.83-.39-1.37-.29-.17.03-.94.17-1.21.79-.03.07-.2.47-.02.67.32.37,1.47-.2,1.59-.27.18-.09,1.09-.56,1.01-.91Z"/>
  <path class="cls-5" d="M49.59,14.58c-.05-.44-.69-.77-1.19-.82-.68-.07-1.16.38-1.69.88-.25.23-.31.35-.31.47,0,.37.55.72.99.82,1,.21,2.28-.68,2.2-1.34Z"/>
  <path class="cls-5" d="M44.85,14.3c-.15-.42-1.23-.39-1.51-.38-.19,0-.87.04-1.58.47-.37.22-.9.54-.9.99,0,.31.26.53.31.57.59.5,1.64.1,1.91,0,.93-.36,1.93-1.19,1.77-1.65Z"/>
  <path class="cls-5" d="M46.03,15.48c-.19-.34-1.37-.23-2.1.38-.55.45-.93,1.24-.71,1.51.19.23.79.02.99-.05,1.08-.38,2.03-1.45,1.82-1.84Z"/>
  <path class="cls-5" d="M40.36,17.16c.02-.29-.24-.56-.46-.68-.44-.24-.95,0-1.42.22-.35.17-.94.44-.92.8.02.3.44.49.5.52.88.4,2.26-.23,2.31-.85Z"/>
  <path class="cls-5" d="M41.98,18.22c-.18-.27-.81-.14-1-.09-.65.14-1.02.56-1.18.75-.23.26-.42.49-.35.68.11.32.95.44,1.57.16.7-.32,1.17-1.17.96-1.49Z"/>
  <path class="cls-5" d="M37.28,18.63c-.17-.08-.41.1-.88.46-.4.31-.6.46-.66.71-.06.24-.03.61.23.81.35.28.85.03.9,0,.44-.23.54-.74.58-.96.05-.28.1-.9-.16-1.02Z"/>
  <path class="cls-5" d="M38.74,20.39c-.24-.14-.66.15-.85.35-.31.32-.58.92-.33,1.22.21.24.69.21.99.01.55-.37.52-1.4.19-1.59Z"/>
  <path class="cls-5" d="M35.4,21.65c-.04-.24-.21-.57-.49-.62-.41-.08-.76.48-.9.69-.16.25-.37.58-.23.84.15.27.6.31.91.22.46-.14.79-.65.71-1.13Z"/>
  <path class="cls-5" d="M36.96,22.39c-.19-.11-.43-.03-.53,0-.03,0-.52.17-.62.66,0,.05-.09.44.19.75.25.28.68.35.95.2.52-.28.45-1.37.01-1.61Z"/>
  <path class="cls-5" d="M33.75,23.63c-.19-.21-.49-.27-.72-.23-.59.09-1.1.83-.84,1.41.17.39.66.63,1.04.53.65-.16.92-1.25.52-1.71Z"/>
  <path class="cls-5" d="M35.97,24.58c-.31-.23-.73-.14-.8-.12-.05.01-.56.13-.79.62-.17.37-.16.88.18,1.23.35.37.91.42,1.28.22.66-.37.66-1.56.14-1.95Z"/>
  <path class="cls-5" d="M32.55,26.56c-.05-.36-.32-.74-.71-.85-.58-.18-1.25.27-1.45.87-.2.6.07,1.34.52,1.51.65.24,1.75-.68,1.64-1.52Z"/>
  <path class="cls-5" d="M34.11,26.81c-.35-.07-.68.27-.88.47-.23.23-.74.75-.57,1.38.14.54.73.98,1.3.9.48-.07.73-.48.76-.53.2-.33.16-.66.12-.92-.01-.1-.15-1.19-.73-1.3Z"/>
  <path class="cls-5" d="M31.05,29.65c-.28-.49-1.01-.84-1.57-.56-.59.3-.62,1.11-.5,1.57.14.55.62,1.15,1.11,1.13.7-.04,1.43-1.33.97-2.14Z"/>
  <path class="cls-5" d="M32.22,29.92c-.42.27-.51.74-.55.96-.03.17-.17.88.26,1.3.47.45,1.45.41,1.95-.21.45-.55.39-1.42-.13-1.88-.41-.37-1.07-.46-1.53-.16Z"/>
  <path class="cls-5" d="M30.49,32.78c-.42-.27-1.09-.02-1.43.38-.53.61-.43,1.74.11,2,.42.21,1.07-.15,1.38-.59.38-.54.44-1.46-.05-1.78Z"/>
  <path class="cls-5" d="M31.9,33.02c-.32.17-.37.63-.41,1.01-.04.37-.08.78.17,1.08.37.43,1.28.52,1.71,0,.43-.52.1-1.28-.22-1.64-.29-.33-.86-.65-1.25-.45Z"/>
  <path class="cls-5" d="M30.46,36.65c-.31-.22-.87-.42-1.16-.21-.43.32-.28,1.48.36,2.11.35.35.99.66,1.34.43.4-.27.2-1.17,0-1.63-.08-.19-.21-.48-.53-.7Z"/>
  <path class="cls-5" d="M32.01,36.22c-.12.12-.08.39,0,.94.13.85.19,1.28.5,1.46.34.2.86.09,1.16-.21.42-.41.32-1.05.15-1.4-.37-.78-1.5-1.09-1.82-.79Z"/>
  <path class="cls-5" d="M33.75,39.37c-.43.04-.71.36-.75.41-.41.49-.29,1.21-.09,1.63.41.85,1.59,1.39,2.17.99.45-.31.39-1.07.38-1.2-.08-.94-.91-1.9-1.71-1.83Z"/>
  <path class="cls-5" d="M31.37,39.92c-.46-.03-.91.5-1.06.98-.3.91.32,2.1,1.01,2.14.43.03.82-.39.99-.75.44-.93-.24-2.31-.94-2.36Z"/>
  <path class="cls-5" d="M32.5,43.12c-.06,0-.8.01-1.27.6-.53.67-.34,1.61.02,2.17.49.76,1.62,1.35,2.43.87.75-.44.83-1.55.57-2.28-.24-.65-.88-1.37-1.75-1.37Z"/>
  <path class="cls-5" d="M36.39,42.51c-.43-.07-.86.3-1.34.7-.4.34-.78.66-.91,1.15-.26.96.47,2.4,1.54,2.48.77.06,1.43-.6,1.71-1.18.61-1.26-.18-3.02-1.01-3.15Z"/>
  <path class="cls-5" d="M34.92,47.8c-.44-.82-1.97-.99-2.52-.26-.42.56-.28,1.66.53,2.09.69.36,1.55.06,1.92-.55.22-.37.29-.88.07-1.28Z"/>
  <path class="cls-5" d="M36.15,47.2c-.37.22-.55.53-.62.65-.31.56-.4,1.47.02,1.82.54.44,1.83-.06,2.31-.94.19-.34.4-1.03.05-1.46-.39-.48-1.25-.37-1.76-.07Z"/>
  <path class="cls-5" d="M35.06,50.37c-.19-.57-1.69-.83-2.01-.38-.4.57.98,2.36,1.45,2.2.09-.03.2-.39.42-1.11.17-.56.17-.63.15-.71Z"/>
  <path class="cls-5" d="M36,50.05c-.29.16-.83.56-.75.9.09.36.84.55,1.43.4.74-.2,1.32-.99,1.15-1.34-.17-.36-1.16-.33-1.82.04Z"/>
  <path class="cls-3" d="M94.22,111.05c-.22-.57-2.24-.85-3.16.23-.48.57-.68,1.54-.3,1.9.54.51,2.21-.22,3.08-1.29.23-.29.48-.59.38-.84Z"/>
  <path class="cls-3" d="M95.24,112.83c-.05-.06-.14-.03-1.33.46-1.26.51-1.45.6-1.48.8-.07.38.46.94.99.99,1.09.1,2.1-1.96,1.83-2.24Z"/>
  <path class="cls-3" d="M94.87,111.02c-.03-.36,1.13-1.06,2.2-.69.68.23,1.31.89,1.18,1.19-.26.57-3.33.07-3.38-.5Z"/>
  <path class="cls-3" d="M97.3,111.99c-.5-.29-1.13.19-1.4.49-.05.06-.54.61-.35.97.24.48,1.64.61,2.05-.09.24-.41.13-1.11-.3-1.36Z"/>
  <path class="cls-3" d="M89.76,112.6c-.25-.54-1.51-.49-2.2-.35-1.7.34-3.21,1.88-2.93,2.62.22.57,1.52.65,2.41.45,1.67-.38,3.04-2.03,2.72-2.72Z"/>
  <path class="cls-3" d="M91.9,114.71c-.22-.29-.71-.25-1.43-.19-1.25.11-2.11.18-2.49.87-.35.64-.17,1.64.42,2.09.86.65,2.2-.13,2.82-.77.54-.56,1.03-1.54.68-2Z"/>
  <path class="cls-3" d="M84.24,116.1c-.22-.19-.6-.52-1.09-.51-1.05.02-1.64,1.49-1.73,1.71-.18.45-.39.97-.19,1.49.36.93,1.83,1.44,2.86.93.65-.32.9-.94.95-1.07.37-.99-.19-2.02-.8-2.55Z"/>
  <path class="cls-3" d="M86.62,117.51c-.23.04-.38.28-.67.78-.3.5-.53.89-.51,1.41,0,.08.06.94.61,1.2.65.31,1.72-.33,1.96-1.18.31-1.09-.8-2.3-1.39-2.21Z"/>
  <path class="cls-3" d="M82.15,122.22c-.17-.13-1.02-.79-1.93-.52-1.17.34-1.59,1.94-1.5,3.01.03.35.12,1.48.98,2,.98.59,2.48.11,3.16-.92.79-1.2.24-2.8-.71-3.56Z"/>
  <path class="cls-3" d="M85.46,122.56c-.86.35-1.2,1.36-1.14,2.12.04.55.33,1.49,1.04,1.66.77.18,1.47-.68,1.75-1.23.35-.69.52-1.89-.18-2.43-.6-.46-1.44-.14-1.47-.12Z"/>
  <path class="cls-3" d="M85.74,128.17c-.52.36-.48,1.39-.14,2.05.41.81,1.45,1.49,2.12,1.13.59-.31.71-1.33.42-2.02-.41-1.01-1.78-1.61-2.41-1.17Z"/>
  <path class="cls-3" d="M83.3,128.8c-.67-.42-1.77-.66-2.62-.07-.99.69-1.11,2.13-.64,3.11.4.83,1.34,1.62,2.48,1.49.88-.1,1.61-.71,1.91-1.49.45-1.16-.19-2.45-1.13-3.04Z"/>
  <path class="cls-3" d="M85.23,134.53c-.5-.04-1.38-.11-1.95.49-.67.7-.42,1.81-.4,1.9.47,1.98,3.78,3.47,5.14,2.39.72-.58.78-1.8.53-2.61-.58-1.92-3.03-2.15-3.32-2.17Z"/>
  <path class="cls-3" d="M88.72,132.14c-.19.02-.75.09-.98.5-.31.54.17,1.27.25,1.39.66,1.01,2.3,1.53,2.9.95.46-.45.15-1.37.13-1.45-.33-.98-1.43-1.5-2.3-1.39Z"/>
  <path class="cls-3" d="M92.99,134.07c-.07.05-.72.46-.73,1.08-.01.69.76,1.16.88,1.23,1.42.86,3.95-.08,4-.91.05-.89-2.75-2.26-4.15-1.4Z"/>
  <path class="cls-3" d="M92.23,137.43c-.39.08-.86.18-1.28.58-.28.27-.8.89-.64,1.34.37,1.08,4.59,1.19,5.11-.06.25-.59-.4-1.33-.44-1.37-.8-.9-2.26-.6-2.74-.5Z"/>
  <path class="cls-3" d="M98.48,134.63c-.13-.37.82-1.07,1.55-1.43,1.39-.68,3.18-.71,3.33-.26.14.41-1.09,1.28-2.22,1.66-1.09.37-2.51.43-2.66.03Z"/>
  <path class="cls-3" d="M98.95,136.03c-.28.17-1.2.72-1.11,1.23.1.6,1.57,1,2.77.76,1.47-.29,2.82-1.6,2.6-2.22-.26-.71-2.64-.74-4.26.23Z"/>
  <path class="cls-3" d="M105.75,130.43c-.96-.08-1.44-.13-1.66.09-.44.42-.29,1.56.23,1.84.82.43,2.63-1.25,2.43-1.72-.05-.12-.37-.15-.99-.2Z"/>
  <path class="cls-3" d="M106.9,131.75c-.52-.36-2.49,1.07-2.3,1.72.11.4,1.08.69,1.79.27.85-.5.87-1.74.51-1.99Z"/>
  <path class="cls-3" d="M109.52,126.62c-.2-.16-.77.23-1.16.51-.25.18-1.25.89-1.09,1.3.11.29.78.39,1.27.2.93-.36,1.27-1.78.98-2.01Z"/>
  <path class="cls-3" d="M109.81,127.4c-.72-.14-1.82,1.57-1.5,2.01.28.38,1.86.21,2.1-.71.13-.53-.19-1.22-.6-1.3Z"/>
  <path class="cls-3" d="M123.86,107.5c-.69,0-1.26.86-1.31,1.81-.05.87.34,1.78.95,2.01.73.27,1.54-.54,1.64-1.65.09-1.08-.52-2.15-1.28-2.16Z"/>
  <path class="cls-3" d="M125.74,107.23c.4-.33,1.7.05,2.12,1.1.45,1.11-.34,2.31-.87,2.32-.82.02-1.9-2.89-1.26-3.42Z"/>
  <path class="cls-3" d="M125.74,112.3c-.75-.54-1.88-.18-2.36.47-.78,1.05.03,2.94,1.02,3.11.67.11,1.39-.57,1.69-1.22.3-.66.42-1.81-.35-2.36Z"/>
  <path class="cls-3" d="M128.45,111.12c-.47.08-1.18.41-1.26.98-.08.62.63,1.11.9,1.3.81.55,2.17.85,2.6.28.36-.49-.06-1.48-.63-2.01-.1-.1-.75-.7-1.61-.55Z"/>
  <path class="cls-3" d="M131.8,114.62c-.09,0-.76-.03-1.14.43-.55.67-.07,1.84.47,2.48.43.51,1.35,1.18,1.97.87.68-.34.7-1.69.28-2.56-.11-.22-.62-1.17-1.57-1.22Z"/>
  <path class="cls-3" d="M127.94,116.03c-.12-.03-1-.28-1.61.24-.69.58-.59,1.73-.24,2.44.58,1.15,2.22,1.79,3.03,1.22.48-.34.53-1,.55-1.26.08-1.09-.62-2.32-1.73-2.63Z"/>
  <path class="cls-3" d="M130.73,121.29c-.7-.38-1.81-.48-2.27.09-.57.7-.06,2.28,1.02,2.79.82.39,2.07.21,2.44-.55.39-.81-.37-1.89-1.19-2.33Z"/>
  <path class="cls-3" d="M131.56,121.58c-.04-.29.05-.55.24-1.06.32-.87.47-1.3.75-1.42.64-.27,1.96.61,2.14,1.78.1.62-.1,1.54-.81,1.9-.65.33-1.33,0-1.42-.04-.04-.02-.78-.41-.89-1.16Z"/>
  <path class="cls-3" d="M132.37,125.06c-.67-.78-1.96-.75-2.58-.02-.69.81-.3,2.2.62,2.65.58.28,1.35.18,1.85-.3.63-.6.68-1.66.11-2.33Z"/>
  <path class="cls-3" d="M134.24,123.83c-.45-.05-.86.47-1.03.82-.2.43-.31,1.2.18,1.6.3.25.8.32,1.16.09.42-.26.46-.77.48-.96.05-.63-.25-1.49-.8-1.55Z"/>
  <path class="cls-3" d="M132.92,128.58c-.57-.51-1.61-.42-2.1.07-.93.93.03,3.31.89,3.43.6.08,1.17-.97,1.23-1.1.27-.52.69-1.76-.02-2.4Z"/>
  <path class="cls-3" d="M134.56,126.8c-.34.23-.38.7-.43,1.35-.07.83-.13,1.59.37,1.96.57.43,1.68.22,2.19-.53.48-.7.23-1.59-.16-2.1-.48-.63-1.44-1.03-1.96-.69Z"/>
  <path class="cls-3" d="M138.17,129.36c-.53.41-.9,1.17-.68,1.74.38.98,2.46,1.31,3.14.39.42-.57.35-1.67-.39-2.22-.65-.49-1.53-.32-2.08.1Z"/>
  <path class="cls-3" d="M137.6,132.73c-.61-.88-1.83-.71-2.12-.68-.14.02-1.74.25-1.93,1.3-.14.81.64,1.54,1.25,1.83.93.45,2.36.33,2.9-.63.3-.54.28-1.3-.1-1.83Z"/>
  <path class="cls-3" d="M142.57,130.47c.08-.88,1.5-1.78,2.36-1.25.59.36.84,1.36.43,1.98-.54.83-2.01.68-2.56,0-.05-.07-.27-.35-.24-.72Z"/>
  <path class="cls-3" d="M142.66,133.07c-1.35.18-1.68.21-1.93.53-.34.44-.37,1.19-.05,1.64.78,1.11,3.87.87,4.68-.63.27-.5.36-1.26,0-1.64-.25-.27-.58-.19-2.7.1Z"/>
  <path class="cls-3" d="M147.64,127.54c-.22-.24-1.16-.08-1.5.63-.29.62.02,1.39.34,1.45.53.09,1.51-1.7,1.16-2.08Z"/>
  <path class="cls-3" d="M148.4,129.76c-.61-.16-1.88,1.52-1.5,2.17.24.41,1.2.52,1.74.05.76-.66.25-2.09-.24-2.22Z"/>
  <path class="cls-3" d="M149.4,124.48c-.52-.26-2.21,1.07-1.7,1.92.21.34.77.61,1.18.57,1.01-.12,1.04-2.23.52-2.49Z"/>
  <path class="cls-3" d="M150.03,125.88c-.65.05-1.28,2.93-.54,3.41.37.24,1.1-.13,1.43-.6.75-1.07-.36-2.85-.89-2.8Z"/>
  <path class="cls-3" d="M148.71,121.66c-.47.09-.82.81-.59,1.33.26.57,1.16.73,1.52.37.3-.3.17-.94-.13-1.3-.06-.07-.4-.47-.8-.4Z"/>
  <path class="cls-3" d="M150.34,121.28c-.5.14-.65,2.07-.08,2.34.29.14.81-.14,1.01-.53.26-.51-.06-1.04-.16-1.2-.13-.21-.5-.69-.77-.61Z"/>
  <path class="cls-3" d="M147.93,120.7c-.14-.59-.93-.8-1.02-.83-.1-.02-.32-.04-.77-.07-.34-.02-.51-.03-.53,0-.14.25,1.68,1.89,2.2,1.55.19-.12.17-.47.12-.65Z"/>
  <path class="cls-3" d="M147.79,118.56c-.21.29.08.83.18,1,.1.19.38.7.95.84.65.16,1.46-.21,1.53-.67.09-.61-1.17-1.11-1.25-1.14-.12-.04-1.12-.42-1.41-.04Z"/>
</svg>